<svg xmlns="http://www.w3.org/2000/svg" width="1435" height="550" viewBox="0 0 1435 550" fill="none"><g opacity="0.04" clip-path="url(#clip0_282_5879)"><path d="M1184.54 292.506L1184.59 299.802L1191.88 299.754L1191.83 292.457L1184.54 292.506Z" fill="#49A6CC"></path><path d="M1199.66 270.616L1199.71 277.912L1207 277.864L1206.96 270.568L1199.66 270.616Z" fill="#49A6CC"></path><path d="M1199.56 248.725L1199.6 256.022L1206.9 255.974L1206.85 248.677L1199.56 248.725Z" fill="#49A6CC"></path><path d="M1199.45 237.781L1199.5 245.077L1206.79 245.029L1206.74 237.733L1199.45 237.781Z" fill="#49A6CC"></path><path d="M1199.23 204.838L1199.28 212.135L1206.57 212.086L1206.53 204.79L1199.23 204.838Z" fill="#49A6CC"></path><path d="M1199.02 182.949L1199.07 190.245L1206.36 190.197L1206.31 182.9L1199.02 182.949Z" fill="#49A6CC"></path><path d="M1198.91 161.059L1198.96 168.355L1206.25 168.306L1206.2 161.01L1198.91 161.059Z" fill="#49A6CC"></path><path d="M1362.24 40.2345L1362.29 47.531L1369.58 47.4829L1369.53 40.1864L1362.24 40.2345Z" fill="#49A6CC"></path><path d="M1195.16 303.451L1195.21 310.747L1202.5 310.699L1202.45 303.403L1195.16 303.451Z" fill="#49A6CC"></path><path d="M1195.16 292.506L1195.21 299.802L1202.5 299.753L1202.45 292.457L1195.16 292.506Z" fill="#49A6CC"></path><path d="M1194.94 270.509L1194.99 277.805L1202.28 277.757L1202.24 270.46L1194.94 270.509Z" fill="#49A6CC"></path><path d="M1194.84 248.618L1194.88 255.915L1202.18 255.867L1202.13 248.57L1194.84 248.618Z" fill="#49A6CC"></path><path d="M1209.74 204.839L1209.79 212.135L1217.08 212.087L1217.04 204.79L1209.74 204.839Z" fill="#49A6CC"></path><path d="M1209.64 182.841L1209.68 190.137L1216.98 190.089L1216.93 182.792L1209.64 182.841Z" fill="#49A6CC"></path><path d="M1209.53 171.896L1209.58 179.193L1216.87 179.144L1216.82 171.848L1209.53 171.896Z" fill="#49A6CC"></path><path d="M1372.64 18.2372L1372.69 25.5337L1379.98 25.4851L1379.93 18.1885L1372.64 18.2372Z" fill="#49A6CC"></path><path d="M1206.74 456.896L1206.79 464.192L1214.08 464.143L1214.03 456.847L1206.74 456.896Z" fill="#49A6CC"></path><path d="M1206.31 391.118L1206.36 398.415L1213.65 398.367L1213.6 391.07L1206.31 391.118Z" fill="#49A6CC"></path><path d="M1206.21 380.173L1206.25 387.47L1213.55 387.422L1213.5 380.125L1206.21 380.173Z" fill="#49A6CC"></path><path d="M1206.1 358.176L1206.14 365.472L1213.44 365.424L1213.39 358.128L1206.1 358.176Z" fill="#49A6CC"></path><path d="M1205.78 303.343L1205.82 310.64L1213.12 310.591L1213.07 303.295L1205.78 303.343Z" fill="#49A6CC"></path><path d="M1205.67 292.399L1205.72 299.695L1213.01 299.646L1212.96 292.35L1205.67 292.399Z" fill="#49A6CC"></path><path d="M1205.56 270.508L1205.61 277.804L1212.9 277.756L1212.85 270.46L1205.56 270.508Z" fill="#49A6CC"></path><path d="M1205.45 259.564L1205.5 266.86L1212.79 266.811L1212.75 259.515L1205.45 259.564Z" fill="#49A6CC"></path><path d="M1205.35 248.511L1205.39 255.808L1212.69 255.759L1212.64 248.463L1205.35 248.511Z" fill="#49A6CC"></path><path d="M1205.35 237.566L1205.39 244.862L1212.69 244.814L1212.64 237.518L1205.35 237.566Z" fill="#49A6CC"></path><path d="M1205.13 204.731L1205.18 212.027L1212.47 211.979L1212.42 204.682L1205.13 204.731Z" fill="#49A6CC"></path><path d="M1204.92 182.734L1204.96 190.031L1212.26 189.982L1212.21 182.685L1204.92 182.734Z" fill="#49A6CC"></path><path d="M1204.92 171.788L1204.96 179.085L1212.26 179.037L1212.21 171.74L1204.92 171.788Z" fill="#49A6CC"></path><path d="M1204.81 160.844L1204.86 168.14L1212.15 168.092L1212.1 160.796L1204.81 160.844Z" fill="#49A6CC"></path><path d="M1383.37 40.0197L1383.41 47.3162L1390.71 47.2681L1390.66 39.9716L1383.37 40.0197Z" fill="#49A6CC"></path><path d="M1383.37 29.0743L1383.41 36.3708L1390.71 36.3222L1390.66 29.0257L1383.37 29.0743Z" fill="#49A6CC"></path><path d="M1383.26 18.1295L1383.31 25.426L1390.6 25.3774L1390.55 18.0809L1383.26 18.1295Z" fill="#49A6CC"></path><path d="M1217.57 489.73L1217.62 497.027L1224.91 496.978L1224.86 489.681L1217.57 489.73Z" fill="#49A6CC"></path><path d="M1217.36 467.733L1217.4 475.03L1224.7 474.981L1224.65 467.685L1217.36 467.733Z" fill="#49A6CC"></path><path d="M1217.36 456.788L1217.4 464.084L1224.7 464.036L1224.65 456.74L1217.36 456.788Z" fill="#49A6CC"></path><path d="M1217.25 445.843L1217.3 453.139L1224.59 453.091L1224.54 445.795L1217.25 445.843Z" fill="#49A6CC"></path><path d="M1217.03 412.901L1217.08 420.197L1224.38 420.148L1224.33 412.852L1217.03 412.901Z" fill="#49A6CC"></path><path d="M1216.93 401.956L1216.98 409.252L1224.27 409.204L1224.22 401.907L1216.93 401.956Z" fill="#49A6CC"></path><path d="M1216.93 391.01L1216.98 398.307L1224.27 398.259L1224.22 390.962L1216.93 391.01Z" fill="#49A6CC"></path><path d="M1216.82 380.066L1216.87 387.362L1224.16 387.313L1224.11 380.017L1216.82 380.066Z" fill="#49A6CC"></path><path d="M1216.71 369.121L1216.76 376.417L1224.06 376.368L1224.01 369.072L1216.71 369.121Z" fill="#49A6CC"></path><path d="M1216.61 358.176L1216.65 365.473L1223.95 365.424L1223.9 358.128L1216.61 358.176Z" fill="#49A6CC"></path><path d="M1215.86 237.566L1215.9 244.863L1223.2 244.814L1223.15 237.518L1215.86 237.566Z" fill="#49A6CC"></path><path d="M1215.64 204.624L1215.69 211.92L1222.98 211.872L1222.93 204.575L1215.64 204.624Z" fill="#49A6CC"></path><path d="M1228.08 489.623L1228.13 496.92L1235.42 496.871L1235.37 489.575L1228.08 489.623Z" fill="#49A6CC"></path><path d="M1227.33 379.959L1227.38 387.255L1234.67 387.207L1234.62 379.91L1227.33 379.959Z" fill="#49A6CC"></path><path d="M1227.33 369.013L1227.38 376.31L1234.67 376.261L1234.62 368.964L1227.33 369.013Z" fill="#49A6CC"></path><path d="M1226.9 314.181L1226.95 321.478L1234.24 321.429L1234.19 314.133L1226.9 314.181Z" fill="#49A6CC"></path><path d="M1226.69 281.346L1226.74 288.643L1234.03 288.595L1233.98 281.298L1226.69 281.346Z" fill="#49A6CC"></path><path d="M1226.58 259.349L1226.63 266.645L1233.92 266.596L1233.87 259.3L1226.58 259.349Z" fill="#49A6CC"></path><path d="M1226.47 248.404L1226.52 255.7L1233.81 255.652L1233.77 248.355L1226.47 248.404Z" fill="#49A6CC"></path><path d="M1226.15 204.517L1226.2 211.813L1233.49 211.765L1233.44 204.468L1226.15 204.517Z" fill="#49A6CC"></path><path d="M1225.94 160.736L1225.98 168.033L1233.28 167.985L1233.23 160.688L1225.94 160.736Z" fill="#49A6CC"></path><path d="M1238.8 511.513L1238.85 518.81L1246.15 518.761L1246.1 511.464L1238.8 511.513Z" fill="#49A6CC"></path><path d="M1238.7 500.568L1238.75 507.865L1246.04 507.816L1245.99 500.52L1238.7 500.568Z" fill="#49A6CC"></path><path d="M1238.59 489.516L1238.64 496.812L1245.93 496.764L1245.88 489.468L1238.59 489.516Z" fill="#49A6CC"></path><path d="M1238.16 412.793L1238.21 420.09L1245.5 420.042L1245.46 412.745L1238.16 412.793Z" fill="#49A6CC"></path><path d="M1237.95 390.904L1238 398.2L1245.29 398.151L1245.24 390.855L1237.95 390.904Z" fill="#49A6CC"></path><path d="M1237.95 379.958L1238 387.255L1245.29 387.206L1245.24 379.909L1237.95 379.958Z" fill="#49A6CC"></path><path d="M1237.52 314.181L1237.57 321.477L1244.86 321.429L1244.81 314.132L1237.52 314.181Z" fill="#49A6CC"></path><path d="M1236.98 248.297L1237.03 255.594L1244.32 255.545L1244.27 248.248L1236.98 248.297Z" fill="#49A6CC"></path><path d="M1236.77 215.462L1236.82 222.758L1244.11 222.71L1244.06 215.413L1236.77 215.462Z" fill="#49A6CC"></path><path d="M1236.45 160.629L1236.49 167.926L1243.79 167.877L1243.74 160.581L1236.45 160.629Z" fill="#49A6CC"></path><path d="M1248.99 467.519L1249.04 474.815L1256.33 474.767L1256.29 467.47L1248.99 467.519Z" fill="#49A6CC"></path><path d="M1248.99 456.573L1249.04 463.87L1256.33 463.822L1256.29 456.525L1248.99 456.573Z" fill="#49A6CC"></path><path d="M1248.46 379.851L1248.51 387.148L1255.8 387.099L1255.75 379.802L1248.46 379.851Z" fill="#49A6CC"></path><path d="M1248.35 368.906L1248.4 376.203L1255.69 376.154L1255.64 368.858L1248.35 368.906Z" fill="#49A6CC"></path><path d="M1248.03 314.074L1248.08 321.37L1255.37 321.322L1255.32 314.026L1248.03 314.074Z" fill="#49A6CC"></path><path d="M1247.81 281.131L1247.86 288.428L1255.15 288.379L1255.1 281.083L1247.81 281.131Z" fill="#49A6CC"></path><path d="M1247.71 270.187L1247.75 277.483L1255.05 277.435L1255 270.138L1247.71 270.187Z" fill="#49A6CC"></path><path d="M1247.71 259.241L1247.76 266.538L1255.05 266.489L1255 259.192L1247.71 259.241Z" fill="#49A6CC"></path><path d="M1247.6 248.296L1247.65 255.593L1254.94 255.545L1254.89 248.248L1247.6 248.296Z" fill="#49A6CC"></path><path d="M1247.49 237.352L1247.54 244.648L1254.83 244.6L1254.79 237.304L1247.49 237.352Z" fill="#49A6CC"></path><path d="M1247.38 215.354L1247.43 222.651L1254.73 222.601L1254.68 215.305L1247.38 215.354Z" fill="#49A6CC"></path><path d="M1247.28 193.464L1247.33 200.76L1254.62 200.712L1254.57 193.416L1247.28 193.464Z" fill="#49A6CC"></path><path d="M1247.17 182.519L1247.22 189.815L1254.51 189.767L1254.46 182.471L1247.17 182.519Z" fill="#49A6CC"></path><path d="M1247.06 171.574L1247.11 178.871L1254.4 178.822L1254.35 171.526L1247.06 171.574Z" fill="#49A6CC"></path><path d="M1246.96 160.522L1247 167.819L1254.3 167.771L1254.25 160.474L1246.96 160.522Z" fill="#49A6CC"></path><path d="M1425.51 28.86L1425.56 36.1565L1432.85 36.1079L1432.8 28.8114L1425.51 28.86Z" fill="#49A6CC"></path><path d="M1259.93 511.405L1259.98 518.702L1267.27 518.654L1267.22 511.357L1259.93 511.405Z" fill="#49A6CC"></path><path d="M1258.54 313.967L1258.59 321.263L1265.88 321.215L1265.83 313.918L1258.54 313.967Z" fill="#49A6CC"></path><path d="M1258.32 270.186L1258.37 277.483L1265.66 277.435L1265.62 270.138L1258.32 270.186Z" fill="#49A6CC"></path><path d="M1258.22 259.134L1258.26 266.43L1265.56 266.382L1265.51 259.086L1258.22 259.134Z" fill="#49A6CC"></path><path d="M1258.11 248.189L1258.16 255.486L1265.45 255.438L1265.4 248.141L1258.11 248.189Z" fill="#49A6CC"></path><path d="M1270.44 511.298L1270.49 518.595L1277.78 518.546L1277.73 511.25L1270.44 511.298Z" fill="#49A6CC"></path><path d="M1270.12 467.412L1270.17 474.708L1277.46 474.659L1277.41 467.362L1270.12 467.412Z" fill="#49A6CC"></path><path d="M1270.12 456.466L1270.17 463.762L1277.46 463.714L1277.41 456.418L1270.12 456.466Z" fill="#49A6CC"></path><path d="M1269.58 390.689L1269.63 397.986L1276.92 397.938L1276.87 390.641L1269.58 390.689Z" fill="#49A6CC"></path><path d="M1269.58 379.744L1269.63 387.04L1276.92 386.992L1276.88 379.695L1269.58 379.744Z" fill="#49A6CC"></path><path d="M1269.37 357.747L1269.42 365.043L1276.71 364.995L1276.66 357.698L1269.37 357.747Z" fill="#49A6CC"></path><path d="M1269.37 346.801L1269.42 354.098L1276.71 354.049L1276.66 346.753L1269.37 346.801Z" fill="#49A6CC"></path><path d="M1269.26 335.857L1269.31 343.153L1276.6 343.104L1276.55 335.808L1269.26 335.857Z" fill="#49A6CC"></path><path d="M1268.94 281.024L1268.99 288.321L1276.28 288.272L1276.23 280.975L1268.94 281.024Z" fill="#49A6CC"></path><path d="M1268.83 270.079L1268.88 277.376L1276.17 277.327L1276.12 270.031L1268.83 270.079Z" fill="#49A6CC"></path><path d="M1268.41 204.302L1268.45 211.598L1275.75 211.55L1275.7 204.254L1268.41 204.302Z" fill="#49A6CC"></path><path d="M1280.95 500.246L1281 507.542L1288.29 507.494L1288.24 500.197L1280.95 500.246Z" fill="#49A6CC"></path><path d="M1280.74 467.304L1280.79 474.6L1288.08 474.552L1288.03 467.255L1280.74 467.304Z" fill="#49A6CC"></path><path d="M1280.63 456.359L1280.68 463.656L1287.97 463.606L1287.92 456.31L1280.63 456.359Z" fill="#49A6CC"></path><path d="M1280.31 412.579L1280.36 419.875L1287.65 419.827L1287.6 412.53L1280.31 412.579Z" fill="#49A6CC"></path><path d="M1280.31 401.526L1280.36 408.823L1287.65 408.774L1287.6 401.477L1280.31 401.526Z" fill="#49A6CC"></path><path d="M1280.2 390.581L1280.25 397.878L1287.54 397.83L1287.49 390.533L1280.2 390.581Z" fill="#49A6CC"></path><path d="M1280.09 379.637L1280.14 386.933L1287.43 386.885L1287.38 379.589L1280.09 379.637Z" fill="#49A6CC"></path><path d="M1280.09 368.691L1280.14 375.988L1287.43 375.939L1287.38 368.643L1280.09 368.691Z" fill="#49A6CC"></path><path d="M1279.99 357.746L1280.04 365.043L1287.33 364.995L1287.28 357.698L1279.99 357.746Z" fill="#49A6CC"></path><path d="M1279.45 280.917L1279.5 288.213L1286.79 288.165L1286.74 280.869L1279.45 280.917Z" fill="#49A6CC"></path><path d="M1279.34 269.972L1279.39 277.269L1286.68 277.221L1286.63 269.924L1279.34 269.972Z" fill="#49A6CC"></path><path d="M1279.34 259.026L1279.39 266.323L1286.68 266.275L1286.63 258.978L1279.34 259.026Z" fill="#49A6CC"></path><path d="M1279.02 215.14L1279.07 222.436L1286.36 222.388L1286.31 215.091L1279.02 215.14Z" fill="#49A6CC"></path><path d="M1278.81 182.305L1278.86 189.601L1286.15 189.552L1286.1 182.256L1278.81 182.305Z" fill="#49A6CC"></path><path d="M1278.7 171.36L1278.75 178.656L1286.04 178.608L1285.99 171.311L1278.7 171.36Z" fill="#49A6CC"></path><path d="M1278.7 160.307L1278.75 167.604L1286.04 167.555L1285.99 160.258L1278.7 160.307Z" fill="#49A6CC"></path><path d="M1291.46 500.139L1291.51 507.435L1298.8 507.387L1298.75 500.091L1291.46 500.139Z" fill="#49A6CC"></path><path d="M1291.14 456.359L1291.19 463.656L1298.48 463.607L1298.43 456.311L1291.14 456.359Z" fill="#49A6CC"></path><path d="M1290.49 357.639L1290.54 364.936L1297.84 364.888L1297.79 357.591L1290.49 357.639Z" fill="#49A6CC"></path><path d="M1289.64 226.085L1289.69 233.381L1296.98 233.333L1296.93 226.036L1289.64 226.085Z" fill="#49A6CC"></path><path d="M1289.32 171.252L1289.36 178.549L1296.66 178.5L1296.61 171.204L1289.32 171.252Z" fill="#49A6CC"></path><path d="M1289.21 160.307L1289.26 167.604L1296.55 167.555L1296.5 160.259L1289.21 160.307Z" fill="#49A6CC"></path><path d="M1301.76 456.251L1301.8 463.548L1309.1 463.499L1309.05 456.203L1301.76 456.251Z" fill="#49A6CC"></path><path d="M1301.65 445.307L1301.7 452.603L1308.99 452.555L1308.94 445.258L1301.65 445.307Z" fill="#49A6CC"></path><path d="M1300.79 313.752L1300.84 321.048L1308.13 321L1308.08 313.704L1300.79 313.752Z" fill="#49A6CC"></path><path d="M1300.68 302.7L1300.73 309.996L1308.02 309.948L1307.97 302.651L1300.68 302.7Z" fill="#49A6CC"></path><path d="M1300.58 280.81L1300.62 288.106L1307.92 288.057L1307.87 280.761L1300.58 280.81Z" fill="#49A6CC"></path><path d="M1300.47 269.865L1300.52 277.161L1307.81 277.113L1307.76 269.817L1300.47 269.865Z" fill="#49A6CC"></path><path d="M1300.47 258.919L1300.52 266.216L1307.81 266.167L1307.76 258.871L1300.47 258.919Z" fill="#49A6CC"></path><path d="M1300.25 225.977L1300.3 233.273L1307.59 233.225L1307.55 225.929L1300.25 225.977Z" fill="#49A6CC"></path><path d="M1299.82 171.145L1299.87 178.441L1307.17 178.393L1307.12 171.097L1299.82 171.145Z" fill="#49A6CC"></path><path d="M1299.72 160.201L1299.77 167.497L1307.06 167.448L1307.01 160.152L1299.72 160.201Z" fill="#49A6CC"></path><path d="M1299.5 127.365L1299.55 134.662L1306.84 134.614L1306.8 127.317L1299.5 127.365Z" fill="#49A6CC"></path><path d="M1299.29 83.4774L1299.34 90.7739L1306.63 90.7253L1306.58 83.4288L1299.29 83.4774Z" fill="#49A6CC"></path><path d="M1312.69 510.976L1312.74 518.272L1320.03 518.224L1319.99 510.928L1312.69 510.976Z" fill="#49A6CC"></path><path d="M1311.84 390.367L1311.88 397.664L1319.18 397.615L1319.13 390.318L1311.84 390.367Z" fill="#49A6CC"></path><path d="M1311.73 379.422L1311.78 386.719L1319.07 386.671L1319.02 379.374L1311.73 379.422Z" fill="#49A6CC"></path><path d="M1311.62 357.532L1311.67 364.829L1318.96 364.779L1318.91 357.483L1311.62 357.532Z" fill="#49A6CC"></path><path d="M1311.3 313.645L1311.35 320.941L1318.64 320.893L1318.59 313.597L1311.3 313.645Z" fill="#49A6CC"></path><path d="M1311.3 302.699L1311.35 309.996L1318.64 309.948L1318.59 302.651L1311.3 302.699Z" fill="#49A6CC"></path><path d="M1311.09 269.757L1311.13 277.054L1318.43 277.005L1318.38 269.708L1311.09 269.757Z" fill="#49A6CC"></path><path d="M1310.98 258.812L1311.03 266.109L1318.32 266.06L1318.27 258.764L1310.98 258.812Z" fill="#49A6CC"></path><path d="M1310.76 225.977L1310.81 233.274L1318.1 233.225L1318.06 225.929L1310.76 225.977Z" fill="#49A6CC"></path><path d="M1310.66 203.98L1310.71 211.276L1318 211.228L1317.95 203.931L1310.66 203.98Z" fill="#49A6CC"></path><path d="M1323.1 488.979L1323.14 496.276L1330.44 496.227L1330.39 488.931L1323.1 488.979Z" fill="#49A6CC"></path><path d="M1322.67 423.202L1322.71 430.498L1330.01 430.45L1329.96 423.153L1322.67 423.202Z" fill="#49A6CC"></path><path d="M1322.35 390.367L1322.39 397.664L1329.69 397.616L1329.64 390.319L1322.35 390.367Z" fill="#49A6CC"></path><path d="M1322.35 379.315L1322.39 386.611L1329.69 386.562L1329.64 379.266L1322.35 379.315Z" fill="#49A6CC"></path><path d="M1321.81 302.592L1321.86 309.889L1329.15 309.84L1329.1 302.544L1321.81 302.592Z" fill="#49A6CC"></path><path d="M1321.17 203.98L1321.21 211.277L1328.51 211.228L1328.46 203.932L1321.17 203.98Z" fill="#49A6CC"></path><path d="M1321.06 192.928L1321.11 200.224L1328.4 200.176L1328.35 192.879L1321.06 192.928Z" fill="#49A6CC"></path><path d="M1321.06 181.982L1321.11 189.279L1328.4 189.231L1328.35 181.934L1321.06 181.982Z" fill="#49A6CC"></path><path d="M1320.52 105.26L1320.57 112.557L1327.86 112.509L1327.81 105.212L1320.52 105.26Z" fill="#49A6CC"></path><path d="M1320.41 94.3156L1320.46 101.612L1327.76 101.564L1327.71 94.2675L1320.41 94.3156Z" fill="#49A6CC"></path><path d="M1320.31 83.3705L1320.36 90.667L1327.65 90.6189L1327.6 83.3224L1320.31 83.3705Z" fill="#49A6CC"></path><path d="M1333.71 510.869L1333.76 518.166L1341.05 518.118L1341.01 510.821L1333.71 510.869Z" fill="#49A6CC"></path><path d="M1333.71 499.924L1333.76 507.221L1341.05 507.172L1341 499.875L1333.71 499.924Z" fill="#49A6CC"></path><path d="M1333.61 488.979L1333.65 496.276L1340.95 496.228L1340.9 488.931L1333.61 488.979Z" fill="#49A6CC"></path><path d="M1333.39 456.037L1333.44 463.333L1340.73 463.285L1340.68 455.989L1333.39 456.037Z" fill="#49A6CC"></path><path d="M1333.18 423.095L1333.22 430.391L1340.52 430.343L1340.47 423.046L1333.18 423.095Z" fill="#49A6CC"></path><path d="M1333.07 401.204L1333.12 408.501L1340.41 408.453L1340.36 401.156L1333.07 401.204Z" fill="#49A6CC"></path><path d="M1332.96 390.259L1333.01 397.556L1340.3 397.508L1340.25 390.211L1332.96 390.259Z" fill="#49A6CC"></path><path d="M1332.86 368.37L1332.9 375.666L1340.2 375.617L1340.15 368.32L1332.86 368.37Z" fill="#49A6CC"></path><path d="M1332.75 357.317L1332.79 364.614L1340.09 364.566L1340.04 357.269L1332.75 357.317Z" fill="#49A6CC"></path><path d="M1332.64 346.372L1332.69 353.669L1339.98 353.621L1339.93 346.324L1332.64 346.372Z" fill="#49A6CC"></path><path d="M1332.53 335.428L1332.58 342.724L1339.87 342.676L1339.83 335.38L1332.53 335.428Z" fill="#49A6CC"></path><path d="M1332.43 313.537L1332.47 320.834L1339.77 320.785L1339.72 313.489L1332.43 313.537Z" fill="#49A6CC"></path><path d="M1332 247.76L1332.04 255.056L1339.34 255.008L1339.29 247.712L1332 247.76Z" fill="#49A6CC"></path><path d="M1331.89 236.708L1331.94 244.005L1339.23 243.957L1339.18 236.66L1331.89 236.708Z" fill="#49A6CC"></path><path d="M1331.89 225.763L1331.94 233.059L1339.23 233.01L1339.18 225.714L1331.89 225.763Z" fill="#49A6CC"></path><path d="M1331.68 192.927L1331.72 200.224L1339.02 200.176L1338.97 192.879L1331.68 192.927Z" fill="#49A6CC"></path><path d="M1331.57 181.983L1331.62 189.279L1338.91 189.23L1338.86 181.934L1331.57 181.983Z" fill="#49A6CC"></path><path d="M1331.03 105.153L1331.08 112.45L1338.37 112.402L1338.32 105.105L1331.03 105.153Z" fill="#49A6CC"></path><path d="M1330.92 83.263L1330.97 90.5596L1338.26 90.5115L1338.22 83.215L1330.92 83.263Z" fill="#49A6CC"></path><path d="M1330.82 61.3727L1330.87 68.6692L1338.16 68.6206L1338.11 61.3241L1330.82 61.3727Z" fill="#49A6CC"></path><path d="M1330.71 50.3207L1330.76 57.6172L1338.05 57.5686L1338 50.2721L1330.71 50.3207Z" fill="#49A6CC"></path><path d="M1344.33 510.762L1344.38 518.058L1351.67 518.01L1351.62 510.713L1344.33 510.762Z" fill="#49A6CC"></path><path d="M1344.12 488.872L1344.16 496.169L1351.46 496.121L1351.41 488.824L1344.12 488.872Z" fill="#49A6CC"></path><path d="M1344.12 477.926L1344.16 485.223L1351.46 485.175L1351.41 477.879L1344.12 477.926Z" fill="#49A6CC"></path><path d="M1343.04 313.43L1343.09 320.726L1350.38 320.677L1350.33 313.381L1343.04 313.43Z" fill="#49A6CC"></path><path d="M1342.4 225.763L1342.45 233.059L1349.74 233.011L1349.69 225.714L1342.4 225.763Z" fill="#49A6CC"></path><path d="M1342.29 203.765L1342.34 211.062L1349.63 211.013L1349.58 203.717L1342.29 203.765Z" fill="#49A6CC"></path><path d="M1342.19 192.821L1342.23 200.117L1349.53 200.068L1349.48 192.772L1342.19 192.821Z" fill="#49A6CC"></path><path d="M1354.84 510.762L1354.89 518.059L1362.18 518.01L1362.13 510.713L1354.84 510.762Z" fill="#49A6CC"></path><path d="M1354.73 488.764L1354.78 496.061L1362.07 496.013L1362.02 488.716L1354.73 488.764Z" fill="#49A6CC"></path><path d="M1354.62 477.82L1354.67 485.117L1361.97 485.068L1361.92 477.771L1354.62 477.82Z" fill="#49A6CC"></path><path d="M1354.52 466.875L1354.57 474.171L1361.86 474.123L1361.81 466.826L1354.52 466.875Z" fill="#49A6CC"></path><path d="M1354.41 444.984L1354.46 452.281L1361.75 452.233L1361.7 444.937L1354.41 444.984Z" fill="#49A6CC"></path><path d="M1353.87 368.155L1353.92 375.452L1361.21 375.403L1361.17 368.107L1353.87 368.155Z" fill="#49A6CC"></path><path d="M1353.87 357.21L1353.92 364.506L1361.21 364.458L1361.17 357.162L1353.87 357.21Z" fill="#49A6CC"></path><path d="M1353.55 313.323L1353.6 320.619L1360.89 320.57L1360.84 313.274L1353.55 313.323Z" fill="#49A6CC"></path><path d="M1353.23 269.543L1353.28 276.839L1360.57 276.791L1360.52 269.494L1353.23 269.543Z" fill="#49A6CC"></path><path d="M1353.02 236.6L1353.06 243.897L1360.36 243.849L1360.31 236.552L1353.02 236.6Z" fill="#49A6CC"></path><path d="M1352.8 203.766L1352.85 211.062L1360.14 211.013L1360.1 203.717L1352.8 203.766Z" fill="#49A6CC"></path><path d="M1352.69 192.713L1352.74 200.01L1360.03 199.962L1359.99 192.665L1352.69 192.713Z" fill="#49A6CC"></path><path d="M1352.69 181.768L1352.74 189.064L1360.03 189.016L1359.99 181.72L1352.69 181.768Z" fill="#49A6CC"></path><path d="M1352.48 148.933L1352.53 156.229L1359.82 156.181L1359.77 148.884L1352.48 148.933Z" fill="#49A6CC"></path><path d="M1352.37 137.881L1352.42 145.177L1359.71 145.129L1359.66 137.833L1352.37 137.881Z" fill="#49A6CC"></path><path d="M1352.27 126.936L1352.31 134.232L1359.61 134.183L1359.56 126.887L1352.27 126.936Z" fill="#49A6CC"></path><path d="M1352.16 105.046L1352.21 112.342L1359.5 112.294L1359.45 104.998L1352.16 105.046Z" fill="#49A6CC"></path><path d="M1352.05 94.101L1352.1 101.397L1359.39 101.349L1359.34 94.0523L1352.05 94.101Z" fill="#49A6CC"></path><path d="M1351.84 61.1586L1351.88 68.4551L1359.18 68.4069L1359.13 61.1104L1351.84 61.1586Z" fill="#49A6CC"></path><path d="M1351.84 50.213L1351.88 57.5095L1359.18 57.4614L1359.13 50.1649L1351.84 50.213Z" fill="#49A6CC"></path><path d="M1364.81 422.987L1364.86 430.284L1372.15 430.236L1372.11 422.939L1364.81 422.987Z" fill="#49A6CC"></path><path d="M1364.49 368.155L1364.54 375.451L1371.83 375.403L1371.78 368.107L1364.49 368.155Z" fill="#49A6CC"></path><path d="M1364.06 313.323L1364.11 320.619L1371.4 320.571L1371.35 313.274L1364.06 313.323Z" fill="#49A6CC"></path><path d="M1364.06 302.377L1364.11 309.674L1371.4 309.625L1371.35 302.329L1364.06 302.377Z" fill="#49A6CC"></path><path d="M1363.96 291.325L1364 298.622L1371.3 298.573L1371.25 291.277L1363.96 291.325Z" fill="#49A6CC"></path><path d="M1363.31 192.713L1363.36 200.01L1370.65 199.961L1370.6 192.664L1363.31 192.713Z" fill="#49A6CC"></path><path d="M1362.99 148.826L1363.04 156.123L1370.33 156.073L1370.28 148.777L1362.99 148.826Z" fill="#49A6CC"></path><path d="M1374.89 346.158L1374.94 353.454L1382.23 353.405L1382.18 346.109L1374.89 346.158Z" fill="#49A6CC"></path><path d="M1374.79 335.105L1374.83 342.402L1382.13 342.353L1382.08 335.057L1374.79 335.105Z" fill="#49A6CC"></path><path d="M1374.68 324.161L1374.73 331.457L1382.02 331.409L1381.97 324.112L1374.68 324.161Z" fill="#49A6CC"></path><path d="M1374.68 313.215L1374.73 320.512L1382.02 320.464L1381.97 313.167L1374.68 313.215Z" fill="#49A6CC"></path><path d="M1374.57 302.27L1374.62 309.567L1381.91 309.518L1381.87 302.222L1374.57 302.27Z" fill="#49A6CC"></path><path d="M1374.36 269.328L1374.41 276.625L1381.7 276.576L1381.65 269.279L1374.36 269.328Z" fill="#49A6CC"></path><path d="M1374.14 236.493L1374.19 243.789L1381.48 243.741L1381.44 236.445L1374.14 236.493Z" fill="#49A6CC"></path><path d="M1373.82 192.606L1373.87 199.902L1381.16 199.854L1381.11 192.558L1373.82 192.606Z" fill="#49A6CC"></path><path d="M1373.82 181.66L1373.87 188.957L1381.16 188.909L1381.11 181.612L1373.82 181.66Z" fill="#49A6CC"></path><path d="M1373.71 170.716L1373.76 178.012L1381.05 177.964L1381.01 170.668L1373.71 170.716Z" fill="#49A6CC"></path><path d="M1373.61 148.718L1373.65 156.015L1380.95 155.967L1380.9 148.67L1373.61 148.718Z" fill="#49A6CC"></path><path d="M1373.39 126.829L1373.44 134.125L1380.73 134.076L1380.68 126.78L1373.39 126.829Z" fill="#49A6CC"></path><path d="M1372.96 61.0512L1373.01 68.3477L1380.3 68.3L1380.26 61.0035L1372.96 61.0512Z" fill="#49A6CC"></path><path d="M1385.83 411.828L1385.88 419.125L1393.17 419.075L1393.12 411.779L1385.83 411.828Z" fill="#49A6CC"></path><path d="M1385.83 400.882L1385.88 408.179L1393.17 408.13L1393.12 400.834L1385.83 400.882Z" fill="#49A6CC"></path><path d="M1385.72 389.938L1385.77 397.234L1393.07 397.185L1393.02 389.889L1385.72 389.938Z" fill="#49A6CC"></path><path d="M1385.62 378.993L1385.67 386.289L1392.96 386.241L1392.91 378.945L1385.62 378.993Z" fill="#49A6CC"></path><path d="M1385.51 367.941L1385.56 375.238L1392.85 375.189L1392.8 367.892L1385.51 367.941Z" fill="#49A6CC"></path><path d="M1385.3 324.16L1385.35 331.457L1392.64 331.408L1392.59 324.112L1385.3 324.16Z" fill="#49A6CC"></path><path d="M1384.65 236.386L1384.7 243.682L1391.99 243.634L1391.95 236.338L1384.65 236.386Z" fill="#49A6CC"></path><path d="M1384.44 192.498L1384.49 199.795L1391.78 199.746L1391.73 192.45L1384.44 192.498Z" fill="#49A6CC"></path><path d="M1384.22 170.609L1384.27 177.905L1391.56 177.857L1391.52 170.56L1384.22 170.609Z" fill="#49A6CC"></path><path d="M1384.01 126.721L1384.06 134.017L1391.35 133.969L1391.3 126.673L1384.01 126.721Z" fill="#49A6CC"></path><path d="M1397.09 510.44L1397.14 517.736L1404.43 517.688L1404.38 510.391L1397.09 510.44Z" fill="#49A6CC"></path><path d="M1396.13 367.94L1396.18 375.237L1403.47 375.188L1403.42 367.892L1396.13 367.94Z" fill="#49A6CC"></path><path d="M1395.81 324.053L1395.85 331.35L1403.15 331.302L1403.1 324.005L1395.81 324.053Z" fill="#49A6CC"></path><path d="M1395.81 313.108L1395.85 320.404L1403.15 320.356L1403.1 313.06L1395.81 313.108Z" fill="#49A6CC"></path><path d="M1395.27 236.278L1395.32 243.575L1402.61 243.526L1402.56 236.23L1395.27 236.278Z" fill="#49A6CC"></path><path d="M1394.2 82.8339L1394.25 90.1304L1401.54 90.0817L1401.49 82.7852L1394.2 82.8339Z" fill="#49A6CC"></path><path d="M1394.09 60.9437L1394.14 68.2402L1401.43 68.1916L1401.38 60.8951L1394.09 60.9437Z" fill="#49A6CC"></path><path d="M1407.6 510.333L1407.65 517.629L1414.94 517.581L1414.89 510.284L1407.6 510.333Z" fill="#49A6CC"></path><path d="M1407.49 499.388L1407.54 506.684L1414.84 506.636L1414.79 499.34L1407.49 499.388Z" fill="#49A6CC"></path><path d="M1407.49 488.442L1407.54 495.739L1414.84 495.691L1414.79 488.394L1407.49 488.442Z" fill="#49A6CC"></path><path d="M1407.39 477.498L1407.44 484.794L1414.73 484.746L1414.68 477.449L1407.39 477.498Z" fill="#49A6CC"></path><path d="M1407.28 466.553L1407.33 473.85L1414.62 473.801L1414.57 466.504L1407.28 466.553Z" fill="#49A6CC"></path><path d="M1406.96 411.721L1407.01 419.017L1414.3 418.968L1414.25 411.671L1406.96 411.721Z" fill="#49A6CC"></path><path d="M1406.85 389.723L1406.9 397.019L1414.19 396.971L1414.14 389.675L1406.85 389.723Z" fill="#49A6CC"></path><path d="M1406.64 367.833L1406.69 375.13L1413.98 375.081L1413.93 367.785L1406.64 367.833Z" fill="#49A6CC"></path><path d="M1406.42 323.946L1406.47 331.242L1413.76 331.194L1413.71 323.897L1406.42 323.946Z" fill="#49A6CC"></path><path d="M1404.6 60.8368L1404.65 68.1333L1411.94 68.0847L1411.89 60.7882L1404.6 60.8368Z" fill="#49A6CC"></path><path d="M1404.6 49.891L1404.65 57.1875L1411.94 57.1389L1411.89 49.8424L1404.6 49.891Z" fill="#49A6CC"></path><path d="M1418.22 510.332L1418.27 517.629L1425.56 517.581L1425.51 510.284L1418.22 510.332Z" fill="#49A6CC"></path><path d="M1418 488.335L1418.05 495.632L1425.34 495.584L1425.3 488.287L1418 488.335Z" fill="#49A6CC"></path><path d="M1417.9 477.391L1417.95 484.688L1425.24 484.638L1425.19 477.342L1417.9 477.391Z" fill="#49A6CC"></path><path d="M1417.9 466.445L1417.95 473.742L1425.24 473.693L1425.19 466.397L1417.9 466.445Z" fill="#49A6CC"></path><path d="M1417.68 433.503L1417.73 440.8L1425.02 440.751L1424.97 433.454L1417.68 433.503Z" fill="#49A6CC"></path><path d="M1417.57 422.558L1417.62 429.855L1424.92 429.806L1424.87 422.51L1417.57 422.558Z" fill="#49A6CC"></path><path d="M1417.47 411.614L1417.52 418.91L1424.81 418.862L1424.76 411.565L1417.47 411.614Z" fill="#49A6CC"></path><path d="M1417.36 389.723L1417.41 397.02L1424.7 396.971L1424.65 389.675L1417.36 389.723Z" fill="#49A6CC"></path><path d="M1417.25 378.778L1417.3 386.075L1424.59 386.027L1424.54 378.73L1417.25 378.778Z" fill="#49A6CC"></path><path d="M1417.15 356.781L1417.2 364.078L1424.49 364.028L1424.44 356.732L1417.15 356.781Z" fill="#49A6CC"></path><path d="M1417.04 345.836L1417.09 353.132L1424.38 353.084L1424.33 345.788L1417.04 345.836Z" fill="#49A6CC"></path><path d="M1417.04 334.891L1417.09 342.187L1424.38 342.138L1424.33 334.842L1417.04 334.891Z" fill="#49A6CC"></path><path d="M1416.4 236.171L1416.44 243.467L1423.74 243.419L1423.69 236.123L1416.4 236.171Z" fill="#49A6CC"></path><path d="M1415.64 126.506L1415.69 133.803L1422.99 133.754L1422.94 126.458L1415.64 126.506Z" fill="#49A6CC"></path><path d="M1415.11 49.7841L1415.16 57.0806L1422.45 57.0324L1422.4 49.7359L1415.11 49.7841Z" fill="#49A6CC"></path><path d="M1428.73 510.225L1428.78 517.522L1436.07 517.473L1436.02 510.177L1428.73 510.225Z" fill="#49A6CC"></path><path d="M1428.62 499.28L1428.67 506.577L1435.96 506.529L1435.91 499.232L1428.62 499.28Z" fill="#49A6CC"></path><path d="M1428.51 477.39L1428.56 484.687L1435.85 484.639L1435.81 477.342L1428.51 477.39Z" fill="#49A6CC"></path><path d="M1428.3 444.448L1428.35 451.745L1435.64 451.696L1435.59 444.399L1428.3 444.448Z" fill="#49A6CC"></path><path d="M1428.19 433.503L1428.24 440.8L1435.53 440.751L1435.48 433.455L1428.19 433.503Z" fill="#49A6CC"></path><path d="M1428.08 422.558L1428.13 429.855L1435.42 429.806L1435.38 422.51L1428.08 422.558Z" fill="#49A6CC"></path><path d="M1427.87 389.616L1427.92 396.912L1435.21 396.864L1435.16 389.568L1427.87 389.616Z" fill="#49A6CC"></path><path d="M1427.87 378.671L1427.92 385.967L1435.21 385.919L1435.16 378.622L1427.87 378.671Z" fill="#49A6CC"></path><path d="M1427.44 323.839L1427.49 331.135L1434.78 331.086L1434.73 323.79L1427.44 323.839Z" fill="#49A6CC"></path><path d="M1427.12 269.006L1427.17 276.302L1434.46 276.254L1434.41 268.958L1427.12 269.006Z" fill="#49A6CC"></path><path d="M1426.9 236.171L1426.95 243.468L1434.25 243.419L1434.2 236.123L1426.9 236.171Z" fill="#49A6CC"></path><path d="M1426.8 214.173L1426.85 221.47L1434.14 221.422L1434.09 214.125L1426.8 214.173Z" fill="#49A6CC"></path><path d="M1426.58 192.284L1426.63 199.581L1433.93 199.532L1433.88 192.235L1426.58 192.284Z" fill="#49A6CC"></path><path d="M1426.47 170.287L1426.52 177.583L1433.82 177.534L1433.77 170.238L1426.47 170.287Z" fill="#49A6CC"></path><path d="M1426.37 159.342L1426.42 166.638L1433.71 166.59L1433.66 159.293L1426.37 159.342Z" fill="#49A6CC"></path><path d="M1426.37 148.396L1426.42 155.693L1433.71 155.644L1433.66 148.348L1426.37 148.396Z" fill="#49A6CC"></path><path d="M1426.26 137.451L1426.31 144.748L1433.6 144.7L1433.55 137.403L1426.26 137.451Z" fill="#49A6CC"></path><path d="M1426.16 126.506L1426.2 133.803L1433.5 133.755L1433.45 126.458L1426.16 126.506Z" fill="#49A6CC"></path><path d="M1425.72 60.7294L1425.77 68.0259L1433.07 67.9772L1433.02 60.6807L1425.72 60.7294Z" fill="#49A6CC"></path><path d="M1425.62 49.6771L1425.67 56.9736L1432.96 56.925L1432.91 49.6285L1425.62 49.6771Z" fill="#49A6CC"></path><path d="M1184.76 314.503L1184.8 321.8L1192.1 321.75L1192.05 314.454L1184.76 314.503Z" fill="#2F829D"></path><path d="M1184.65 303.558L1184.7 310.854L1191.99 310.806L1191.94 303.509L1184.65 303.558Z" fill="#2F829D"></path><path d="M1199.56 259.671L1199.6 266.967L1206.9 266.919L1206.85 259.623L1199.56 259.671Z" fill="#2F829D"></path><path d="M1199.24 215.891L1199.28 223.188L1206.58 223.139L1206.53 215.843L1199.24 215.891Z" fill="#2F829D"></path><path d="M1362.13 18.2369L1362.18 25.5334L1369.47 25.4848L1369.42 18.1883L1362.13 18.2369Z" fill="#2F829D"></path><path d="M1195.27 314.395L1195.31 321.692L1202.61 321.644L1202.56 314.348L1195.27 314.395Z" fill="#2F829D"></path><path d="M1194.94 259.563L1194.99 266.86L1202.28 266.811L1202.24 259.514L1194.94 259.563Z" fill="#2F829D"></path><path d="M1194.62 215.783L1194.67 223.08L1201.96 223.031L1201.92 215.735L1194.62 215.783Z" fill="#2F829D"></path><path d="M1372.86 40.1266L1372.9 47.4231L1380.2 47.375L1380.15 40.0785L1372.86 40.1266Z" fill="#2F829D"></path><path d="M1207.17 511.727L1207.22 519.024L1214.51 518.975L1214.46 511.679L1207.17 511.727Z" fill="#2F829D"></path><path d="M1205.99 347.231L1206.04 354.528L1213.33 354.479L1213.28 347.183L1205.99 347.231Z" fill="#2F829D"></path><path d="M1205.99 336.285L1206.04 343.582L1213.33 343.534L1213.28 336.237L1205.99 336.285Z" fill="#2F829D"></path><path d="M1205.56 281.453L1205.61 288.75L1212.9 288.702L1212.85 281.406L1205.56 281.453Z" fill="#2F829D"></path><path d="M1205.03 193.786L1205.07 201.083L1212.37 201.034L1212.32 193.737L1205.03 193.786Z" fill="#2F829D"></path><path d="M1217.68 511.62L1217.73 518.917L1225.02 518.868L1224.97 511.572L1217.68 511.62Z" fill="#2F829D"></path><path d="M1216.61 347.123L1216.65 354.42L1223.95 354.372L1223.9 347.075L1216.61 347.123Z" fill="#2F829D"></path><path d="M1216.5 336.178L1216.55 343.475L1223.84 343.427L1223.79 336.13L1216.5 336.178Z" fill="#2F829D"></path><path d="M1228.19 511.513L1228.24 518.81L1235.53 518.761L1235.48 511.465L1228.19 511.513Z" fill="#2F829D"></path><path d="M1228.19 500.568L1228.24 507.864L1235.53 507.816L1235.48 500.52L1228.19 500.568Z" fill="#2F829D"></path><path d="M1227.97 467.733L1228.02 475.029L1235.31 474.981L1235.27 467.685L1227.97 467.733Z" fill="#2F829D"></path><path d="M1227.87 456.788L1227.92 464.085L1235.21 464.036L1235.16 456.74L1227.87 456.788Z" fill="#2F829D"></path><path d="M1227.12 347.123L1227.16 354.42L1234.46 354.372L1234.41 347.075L1227.12 347.123Z" fill="#2F829D"></path><path d="M1227.12 336.178L1227.16 343.475L1234.46 343.426L1234.41 336.129L1227.12 336.178Z" fill="#2F829D"></path><path d="M1226.79 292.291L1226.84 299.587L1234.13 299.539L1234.09 292.243L1226.79 292.291Z" fill="#2F829D"></path><path d="M1226.58 270.294L1226.63 277.591L1233.92 277.542L1233.87 270.246L1226.58 270.294Z" fill="#2F829D"></path><path d="M1226.36 237.459L1226.41 244.756L1233.71 244.707L1233.66 237.41L1226.36 237.459Z" fill="#2F829D"></path><path d="M1226.04 182.626L1226.09 189.923L1233.38 189.874L1233.34 182.578L1226.04 182.626Z" fill="#2F829D"></path><path d="M1225.94 171.682L1225.98 178.978L1233.28 178.93L1233.23 171.634L1225.94 171.682Z" fill="#2F829D"></path><path d="M1404.49 39.9122L1404.54 47.2087L1411.83 47.1601L1411.78 39.8636L1404.49 39.9122Z" fill="#2F829D"></path><path d="M1404.39 28.9674L1404.43 36.2639L1411.73 36.2153L1411.68 28.9188L1404.39 28.9674Z" fill="#2F829D"></path><path d="M1238.59 478.57L1238.64 485.867L1245.93 485.819L1245.88 478.522L1238.59 478.57Z" fill="#2F829D"></path><path d="M1238.48 467.626L1238.53 474.922L1245.82 474.874L1245.78 467.578L1238.48 467.626Z" fill="#2F829D"></path><path d="M1237.73 347.016L1237.78 354.312L1245.07 354.264L1245.03 346.968L1237.73 347.016Z" fill="#2F829D"></path><path d="M1237.3 292.184L1237.35 299.48L1244.64 299.432L1244.6 292.136L1237.3 292.184Z" fill="#2F829D"></path><path d="M1237.2 270.294L1237.25 277.59L1244.54 277.541L1244.49 270.245L1237.2 270.294Z" fill="#2F829D"></path><path d="M1236.55 182.52L1236.6 189.816L1243.89 189.767L1243.84 182.47L1236.55 182.52Z" fill="#2F829D"></path><path d="M1236.55 171.574L1236.6 178.87L1243.89 178.822L1243.85 171.526L1236.55 171.574Z" fill="#2F829D"></path><path d="M1415 39.9125L1415.05 47.209L1422.34 47.1604L1422.29 39.8639L1415 39.9125Z" fill="#2F829D"></path><path d="M1415 28.8598L1415.05 36.1562L1422.34 36.1081L1422.29 28.8116L1415 28.8598Z" fill="#2F829D"></path><path d="M1248.67 412.793L1248.72 420.09L1256.01 420.042L1255.96 412.745L1248.67 412.793Z" fill="#2F829D"></path><path d="M1248.56 390.796L1248.61 398.093L1255.91 398.044L1255.86 390.747L1248.56 390.796Z" fill="#2F829D"></path><path d="M1248.24 346.909L1248.29 354.206L1255.58 354.156L1255.53 346.86L1248.24 346.909Z" fill="#2F829D"></path><path d="M1247.92 292.183L1247.97 299.48L1255.26 299.432L1255.21 292.135L1247.92 292.183Z" fill="#2F829D"></path><path d="M1247.28 204.409L1247.33 211.706L1254.62 211.657L1254.57 204.361L1247.28 204.409Z" fill="#2F829D"></path><path d="M1259.72 489.409L1259.77 496.705L1267.06 496.657L1267.01 489.36L1259.72 489.409Z" fill="#2F829D"></path><path d="M1259.72 478.463L1259.77 485.76L1267.06 485.711L1267.01 478.415L1259.72 478.463Z" fill="#2F829D"></path><path d="M1259.18 412.687L1259.23 419.983L1266.52 419.935L1266.47 412.638L1259.18 412.687Z" fill="#2F829D"></path><path d="M1259.18 401.741L1259.23 409.038L1266.52 408.989L1266.47 401.692L1259.18 401.741Z" fill="#2F829D"></path><path d="M1259.07 390.796L1259.12 398.093L1266.42 398.044L1266.37 390.748L1259.07 390.796Z" fill="#2F829D"></path><path d="M1258.43 292.077L1258.48 299.373L1265.77 299.324L1265.72 292.028L1258.43 292.077Z" fill="#2F829D"></path><path d="M1270.33 489.301L1270.38 496.597L1277.67 496.549L1277.62 489.253L1270.33 489.301Z" fill="#2F829D"></path><path d="M1270.23 478.356L1270.28 485.652L1277.57 485.604L1277.52 478.308L1270.23 478.356Z" fill="#2F829D"></path><path d="M1269.05 302.914L1269.1 310.211L1276.39 310.162L1276.34 302.866L1269.05 302.914Z" fill="#2F829D"></path><path d="M1268.94 291.97L1268.99 299.266L1276.28 299.217L1276.23 291.921L1268.94 291.97Z" fill="#2F829D"></path><path d="M1268.72 248.189L1268.77 255.486L1276.07 255.437L1276.02 248.141L1268.72 248.189Z" fill="#2F829D"></path><path d="M1268.62 237.137L1268.67 244.433L1275.96 244.385L1275.91 237.089L1268.62 237.137Z" fill="#2F829D"></path><path d="M1268.3 193.357L1268.35 200.654L1275.64 200.605L1275.59 193.309L1268.3 193.357Z" fill="#2F829D"></path><path d="M1268.3 182.304L1268.34 189.601L1275.64 189.553L1275.59 182.256L1268.3 182.304Z" fill="#2F829D"></path><path d="M1268.19 171.36L1268.24 178.656L1275.53 178.608L1275.48 171.311L1268.19 171.36Z" fill="#2F829D"></path><path d="M1280.95 511.191L1281 518.488L1288.29 518.44L1288.24 511.143L1280.95 511.191Z" fill="#2F829D"></path><path d="M1280.84 489.301L1280.89 496.597L1288.18 496.549L1288.14 489.253L1280.84 489.301Z" fill="#2F829D"></path><path d="M1280.74 478.356L1280.79 485.653L1288.08 485.605L1288.03 478.308L1280.74 478.356Z" fill="#2F829D"></path><path d="M1279.66 313.859L1279.71 321.156L1287.01 321.108L1286.96 313.811L1279.66 313.859Z" fill="#2F829D"></path><path d="M1279.56 302.915L1279.61 310.211L1286.9 310.163L1286.85 302.866L1279.56 302.915Z" fill="#2F829D"></path><path d="M1279.56 291.969L1279.61 299.266L1286.9 299.217L1286.85 291.921L1279.56 291.969Z" fill="#2F829D"></path><path d="M1279.24 248.082L1279.28 255.378L1286.58 255.33L1286.53 248.034L1279.24 248.082Z" fill="#2F829D"></path><path d="M1279.13 237.137L1279.18 244.434L1286.47 244.385L1286.42 237.089L1279.13 237.137Z" fill="#2F829D"></path><path d="M1279.13 226.084L1279.18 233.381L1286.47 233.333L1286.42 226.036L1279.13 226.084Z" fill="#2F829D"></path><path d="M1291.57 511.191L1291.62 518.487L1298.91 518.439L1298.86 511.143L1291.57 511.191Z" fill="#2F829D"></path><path d="M1291.35 478.249L1291.4 485.545L1298.69 485.497L1298.65 478.2L1291.35 478.249Z" fill="#2F829D"></path><path d="M1290.71 379.529L1290.76 386.825L1298.05 386.777L1298 379.481L1290.71 379.529Z" fill="#2F829D"></path><path d="M1290.49 346.694L1290.54 353.99L1297.84 353.942L1297.79 346.646L1290.49 346.694Z" fill="#2F829D"></path><path d="M1290.39 335.749L1290.44 343.046L1297.73 342.997L1297.68 335.701L1290.39 335.749Z" fill="#2F829D"></path><path d="M1290.07 291.862L1290.12 299.159L1297.41 299.11L1297.36 291.813L1290.07 291.862Z" fill="#2F829D"></path><path d="M1289.96 269.972L1290.01 277.268L1297.3 277.22L1297.25 269.924L1289.96 269.972Z" fill="#2F829D"></path><path d="M1289.85 258.92L1289.9 266.216L1297.19 266.168L1297.14 258.871L1289.85 258.92Z" fill="#2F829D"></path><path d="M1289.74 247.975L1289.79 255.271L1297.09 255.223L1297.04 247.927L1289.74 247.975Z" fill="#2F829D"></path><path d="M1288.46 50.6427L1288.51 57.9392L1295.8 57.8911L1295.75 50.5946L1288.46 50.6427Z" fill="#2F829D"></path><path d="M1301.43 412.364L1301.48 419.661L1308.77 419.613L1308.73 412.316L1301.43 412.364Z" fill="#2F829D"></path><path d="M1301.33 390.474L1301.38 397.771L1308.67 397.722L1308.62 390.426L1301.33 390.474Z" fill="#2F829D"></path><path d="M1301.22 379.529L1301.27 386.826L1308.56 386.777L1308.51 379.481L1301.22 379.529Z" fill="#2F829D"></path><path d="M1300.9 335.642L1300.95 342.938L1308.24 342.89L1308.19 335.594L1300.9 335.642Z" fill="#2F829D"></path><path d="M1300.68 291.754L1300.73 299.051L1308.02 299.002L1307.98 291.706L1300.68 291.754Z" fill="#2F829D"></path><path d="M1300.25 236.922L1300.3 244.219L1307.59 244.171L1307.55 236.874L1300.25 236.922Z" fill="#2F829D"></path><path d="M1299.4 105.368L1299.45 112.664L1306.74 112.616L1306.69 105.319L1299.4 105.368Z" fill="#2F829D"></path><path d="M1299.29 94.423L1299.34 101.719L1306.63 101.671L1306.58 94.3743L1299.29 94.423Z" fill="#2F829D"></path><path d="M1299.07 61.4804L1299.12 68.7769L1306.42 68.7288L1306.37 61.4323L1299.07 61.4804Z" fill="#2F829D"></path><path d="M1299.07 50.535L1299.12 57.8315L1306.42 57.7835L1306.37 50.4869L1299.07 50.535Z" fill="#2F829D"></path><path d="M1312.59 500.032L1312.63 507.328L1319.93 507.279L1319.88 499.983L1312.59 500.032Z" fill="#2F829D"></path><path d="M1312.48 478.141L1312.53 485.438L1319.82 485.389L1319.77 478.093L1312.48 478.141Z" fill="#2F829D"></path><path d="M1312.37 467.196L1312.42 474.493L1319.71 474.445L1319.66 467.148L1312.37 467.196Z" fill="#2F829D"></path><path d="M1312.26 456.144L1312.31 463.441L1319.6 463.393L1319.56 456.096L1312.26 456.144Z" fill="#2F829D"></path><path d="M1312.16 445.199L1312.21 452.496L1319.5 452.448L1319.45 445.151L1312.16 445.199Z" fill="#2F829D"></path><path d="M1311.94 412.365L1311.99 419.661L1319.28 419.612L1319.24 412.316L1311.94 412.365Z" fill="#2F829D"></path><path d="M1311.51 346.587L1311.56 353.884L1318.85 353.835L1318.81 346.539L1311.51 346.587Z" fill="#2F829D"></path><path d="M1311.51 335.534L1311.56 342.831L1318.85 342.783L1318.81 335.486L1311.51 335.534Z" fill="#2F829D"></path><path d="M1311.19 291.755L1311.24 299.051L1318.53 299.003L1318.49 291.706L1311.19 291.755Z" fill="#2F829D"></path><path d="M1310.87 247.868L1310.92 255.164L1318.21 255.115L1318.16 247.819L1310.87 247.868Z" fill="#2F829D"></path><path d="M1310.87 236.922L1310.92 244.218L1318.21 244.17L1318.16 236.874L1310.87 236.922Z" fill="#2F829D"></path><path d="M1310.44 171.145L1310.49 178.441L1317.78 178.392L1317.73 171.095L1310.44 171.145Z" fill="#2F829D"></path><path d="M1309.91 105.368L1309.96 112.665L1317.25 112.616L1317.2 105.319L1309.91 105.368Z" fill="#2F829D"></path><path d="M1309.69 61.4801L1309.74 68.7766L1317.03 68.7284L1316.98 61.4319L1309.69 61.4801Z" fill="#2F829D"></path><path d="M1309.58 50.5353L1309.63 57.8318L1316.93 57.7836L1316.88 50.4871L1309.58 50.5353Z" fill="#2F829D"></path><path d="M1323.1 499.924L1323.14 507.221L1330.44 507.172L1330.39 499.876L1323.1 499.924Z" fill="#2F829D"></path><path d="M1322.99 478.034L1323.04 485.331L1330.33 485.282L1330.28 477.986L1322.99 478.034Z" fill="#2F829D"></path><path d="M1322.88 467.089L1322.93 474.386L1330.22 474.338L1330.17 467.041L1322.88 467.089Z" fill="#2F829D"></path><path d="M1322.88 456.144L1322.93 463.44L1330.22 463.392L1330.17 456.096L1322.88 456.144Z" fill="#2F829D"></path><path d="M1322.77 445.199L1322.82 452.496L1330.11 452.447L1330.07 445.151L1322.77 445.199Z" fill="#2F829D"></path><path d="M1322.56 412.257L1322.61 419.553L1329.9 419.505L1329.85 412.208L1322.56 412.257Z" fill="#2F829D"></path><path d="M1321.6 269.757L1321.64 277.054L1328.94 277.005L1328.89 269.709L1321.6 269.757Z" fill="#2F829D"></path><path d="M1321.49 247.76L1321.54 255.056L1328.83 255.008L1328.78 247.711L1321.49 247.76Z" fill="#2F829D"></path><path d="M1321.38 236.815L1321.43 244.112L1328.72 244.063L1328.67 236.766L1321.38 236.815Z" fill="#2F829D"></path><path d="M1320.95 171.037L1321 178.334L1328.29 178.286L1328.24 170.989L1320.95 171.037Z" fill="#2F829D"></path><path d="M1320.63 127.15L1320.68 134.447L1327.97 134.398L1327.92 127.102L1320.63 127.15Z" fill="#2F829D"></path><path d="M1333.07 412.15L1333.12 419.446L1340.41 419.398L1340.36 412.101L1333.07 412.15Z" fill="#2F829D"></path><path d="M1332.32 302.593L1332.37 309.889L1339.66 309.84L1339.61 302.544L1332.32 302.593Z" fill="#2F829D"></path><path d="M1332.32 291.54L1332.37 298.836L1339.66 298.788L1339.61 291.491L1332.32 291.54Z" fill="#2F829D"></path><path d="M1332.1 269.65L1332.15 276.947L1339.44 276.898L1339.4 269.602L1332.1 269.65Z" fill="#2F829D"></path><path d="M1332.1 258.705L1332.15 266.001L1339.44 265.953L1339.4 258.657L1332.1 258.705Z" fill="#2F829D"></path><path d="M1331.46 170.931L1331.51 178.227L1338.8 178.178L1338.75 170.882L1331.46 170.931Z" fill="#2F829D"></path><path d="M1331.46 159.985L1331.51 167.282L1338.8 167.233L1338.75 159.937L1331.46 159.985Z" fill="#2F829D"></path><path d="M1331.25 127.15L1331.29 134.447L1338.59 134.397L1338.54 127.101L1331.25 127.15Z" fill="#2F829D"></path><path d="M1344.01 466.982L1344.06 474.278L1351.35 474.23L1351.3 466.934L1344.01 466.982Z" fill="#2F829D"></path><path d="M1343.9 455.93L1343.95 463.226L1351.24 463.178L1351.19 455.882L1343.9 455.93Z" fill="#2F829D"></path><path d="M1343.9 444.984L1343.95 452.281L1351.24 452.232L1351.19 444.936L1343.9 444.984Z" fill="#2F829D"></path><path d="M1343.69 412.149L1343.73 419.446L1351.03 419.397L1350.98 412.101L1343.69 412.149Z" fill="#2F829D"></path><path d="M1342.94 302.485L1342.98 309.781L1350.28 309.733L1350.23 302.436L1342.94 302.485Z" fill="#2F829D"></path><path d="M1342.83 291.54L1342.88 298.837L1350.17 298.788L1350.12 291.492L1342.83 291.54Z" fill="#2F829D"></path><path d="M1342.08 170.93L1342.13 178.227L1349.42 178.178L1349.37 170.881L1342.08 170.93Z" fill="#2F829D"></path><path d="M1341.97 159.878L1342.02 167.175L1349.31 167.126L1349.26 159.829L1341.97 159.878Z" fill="#2F829D"></path><path d="M1354.2 412.042L1354.24 419.339L1361.54 419.291L1361.49 411.994L1354.2 412.042Z" fill="#2F829D"></path><path d="M1354.09 390.152L1354.14 397.448L1361.43 397.4L1361.38 390.104L1354.09 390.152Z" fill="#2F829D"></path><path d="M1353.98 379.1L1354.03 386.397L1361.32 386.348L1361.27 379.052L1353.98 379.1Z" fill="#2F829D"></path><path d="M1353.77 346.265L1353.81 353.561L1361.11 353.513L1361.06 346.217L1353.77 346.265Z" fill="#2F829D"></path><path d="M1353.66 335.32L1353.71 342.617L1361 342.568L1360.95 335.272L1353.66 335.32Z" fill="#2F829D"></path><path d="M1353.45 291.432L1353.49 298.729L1360.79 298.681L1360.74 291.384L1353.45 291.432Z" fill="#2F829D"></path><path d="M1353.23 258.49L1353.28 265.787L1360.57 265.738L1360.52 258.441L1353.23 258.49Z" fill="#2F829D"></path><path d="M1353.12 247.545L1353.17 254.842L1360.46 254.793L1360.42 247.497L1353.12 247.545Z" fill="#2F829D"></path><path d="M1352.91 214.71L1352.96 222.007L1360.25 221.958L1360.2 214.662L1352.91 214.71Z" fill="#2F829D"></path><path d="M1352.59 170.823L1352.63 178.12L1359.93 178.071L1359.88 170.775L1352.59 170.823Z" fill="#2F829D"></path><path d="M1352.48 159.878L1352.53 167.175L1359.82 167.127L1359.77 159.83L1352.48 159.878Z" fill="#2F829D"></path><path d="M1352.05 83.1554L1352.1 90.4519L1359.39 90.4033L1359.34 83.1067L1352.05 83.1554Z" fill="#2F829D"></path><path d="M1351.94 72.1034L1351.99 79.3999L1359.28 79.3513L1359.24 72.0548L1351.94 72.1034Z" fill="#2F829D"></path><path d="M1365.46 510.655L1365.51 517.951L1372.8 517.902L1372.75 510.605L1365.46 510.655Z" fill="#2F829D"></path><path d="M1365.24 488.765L1365.29 496.061L1372.58 496.013L1372.54 488.716L1365.24 488.765Z" fill="#2F829D"></path><path d="M1365.13 466.767L1365.18 474.064L1372.47 474.016L1372.43 466.719L1365.13 466.767Z" fill="#2F829D"></path><path d="M1364.71 411.935L1364.75 419.232L1372.05 419.183L1372 411.887L1364.71 411.935Z" fill="#2F829D"></path><path d="M1364.6 390.045L1364.65 397.342L1371.94 397.293L1371.89 389.996L1364.6 390.045Z" fill="#2F829D"></path><path d="M1364.49 379.1L1364.54 386.397L1371.83 386.348L1371.78 379.052L1364.49 379.1Z" fill="#2F829D"></path><path d="M1364.28 346.158L1364.32 353.454L1371.62 353.406L1371.57 346.11L1364.28 346.158Z" fill="#2F829D"></path><path d="M1364.28 335.213L1364.33 342.509L1371.62 342.46L1371.57 335.164L1364.28 335.213Z" fill="#2F829D"></path><path d="M1363.2 170.715L1363.25 178.012L1370.54 177.964L1370.5 170.667L1363.2 170.715Z" fill="#2F829D"></path><path d="M1375.97 510.547L1376.01 517.844L1383.31 517.795L1383.26 510.499L1375.97 510.547Z" fill="#2F829D"></path><path d="M1375.86 488.657L1375.91 495.954L1383.2 495.905L1383.15 488.608L1375.86 488.657Z" fill="#2F829D"></path><path d="M1375.75 477.712L1375.8 485.009L1383.09 484.96L1383.04 477.664L1375.75 477.712Z" fill="#2F829D"></path><path d="M1375.64 466.767L1375.69 474.064L1382.99 474.015L1382.94 466.719L1375.64 466.767Z" fill="#2F829D"></path><path d="M1375.54 444.77L1375.59 452.066L1382.88 452.018L1382.83 444.721L1375.54 444.77Z" fill="#2F829D"></path><path d="M1374.25 258.383L1374.3 265.68L1381.59 265.631L1381.54 258.335L1374.25 258.383Z" fill="#2F829D"></path><path d="M1374.25 247.438L1374.3 254.735L1381.59 254.685L1381.54 247.389L1374.25 247.438Z" fill="#2F829D"></path><path d="M1374.03 214.496L1374.08 221.792L1381.38 221.743L1381.33 214.447L1374.03 214.496Z" fill="#2F829D"></path><path d="M1373.93 203.551L1373.98 210.847L1381.27 210.799L1381.22 203.502L1373.93 203.551Z" fill="#2F829D"></path><path d="M1373.29 104.938L1373.33 112.235L1380.63 112.187L1380.58 104.89L1373.29 104.938Z" fill="#2F829D"></path><path d="M1373.18 93.8861L1373.23 101.183L1380.52 101.134L1380.47 93.8374L1373.18 93.8861Z" fill="#2F829D"></path><path d="M1386.48 510.547L1386.52 517.844L1393.82 517.796L1393.77 510.499L1386.48 510.547Z" fill="#2F829D"></path><path d="M1386.37 488.55L1386.42 495.846L1393.71 495.798L1393.66 488.502L1386.37 488.55Z" fill="#2F829D"></path><path d="M1386.26 477.605L1386.31 484.902L1393.6 484.853L1393.55 477.557L1386.26 477.605Z" fill="#2F829D"></path><path d="M1386.26 466.66L1386.31 473.956L1393.6 473.908L1393.55 466.611L1386.26 466.66Z" fill="#2F829D"></path><path d="M1386.05 444.77L1386.1 452.067L1393.39 452.018L1393.34 444.722L1386.05 444.77Z" fill="#2F829D"></path><path d="M1386.05 433.717L1386.09 441.014L1393.39 440.966L1393.34 433.669L1386.05 433.717Z" fill="#2F829D"></path><path d="M1385.4 346.05L1385.45 353.347L1392.74 353.298L1392.69 346.002L1385.4 346.05Z" fill="#2F829D"></path><path d="M1385.3 335.106L1385.34 342.402L1392.64 342.354L1392.59 335.057L1385.3 335.106Z" fill="#2F829D"></path><path d="M1384.87 258.383L1384.92 265.679L1392.21 265.631L1392.16 258.335L1384.87 258.383Z" fill="#2F829D"></path><path d="M1384.55 214.496L1384.59 221.792L1391.89 221.744L1391.84 214.447L1384.55 214.496Z" fill="#2F829D"></path><path d="M1383.9 115.776L1383.95 123.073L1391.24 123.024L1391.19 115.728L1383.9 115.776Z" fill="#2F829D"></path><path d="M1383.79 104.831L1383.84 112.128L1391.13 112.08L1391.09 104.783L1383.79 104.831Z" fill="#2F829D"></path><path d="M1383.8 93.8856L1383.84 101.182L1391.14 101.134L1391.09 93.837L1383.8 93.8856Z" fill="#2F829D"></path><path d="M1383.58 71.889L1383.63 79.1855L1390.92 79.1374L1390.87 71.8408L1383.58 71.889Z" fill="#2F829D"></path><path d="M1383.58 60.9433L1383.63 68.2397L1390.92 68.1917L1390.87 60.8952L1383.58 60.9433Z" fill="#2F829D"></path><path d="M1383.47 49.9986L1383.52 57.2952L1390.81 57.2471L1390.77 49.9505L1383.47 49.9986Z" fill="#2F829D"></path><path d="M1396.66 444.662L1396.71 451.959L1404 451.911L1403.96 444.614L1396.66 444.662Z" fill="#2F829D"></path><path d="M1396.02 345.943L1396.07 353.239L1403.36 353.191L1403.31 345.895L1396.02 345.943Z" fill="#2F829D"></path><path d="M1395.7 302.163L1395.75 309.459L1403.04 309.411L1402.99 302.115L1395.7 302.163Z" fill="#2F829D"></path><path d="M1395.59 291.111L1395.64 298.407L1402.93 298.359L1402.88 291.063L1395.59 291.111Z" fill="#2F829D"></path><path d="M1395.48 269.221L1395.53 276.517L1402.82 276.469L1402.77 269.172L1395.48 269.221Z" fill="#2F829D"></path><path d="M1395.38 258.276L1395.42 265.572L1402.72 265.524L1402.67 258.228L1395.38 258.276Z" fill="#2F829D"></path><path d="M1395.05 214.389L1395.1 221.685L1402.4 221.637L1402.35 214.34L1395.05 214.389Z" fill="#2F829D"></path><path d="M1394.95 192.498L1395 199.795L1402.29 199.747L1402.24 192.45L1394.95 192.498Z" fill="#2F829D"></path><path d="M1394.84 181.554L1394.89 188.85L1402.18 188.802L1402.13 181.505L1394.84 181.554Z" fill="#2F829D"></path><path d="M1394.84 170.501L1394.89 177.797L1402.18 177.749L1402.13 170.453L1394.84 170.501Z" fill="#2F829D"></path><path d="M1394.62 148.611L1394.67 155.908L1401.97 155.859L1401.92 148.562L1394.62 148.611Z" fill="#2F829D"></path><path d="M1394.3 93.7787L1394.35 101.075L1401.65 101.026L1401.6 93.73L1394.3 93.7787Z" fill="#2F829D"></path><path d="M1407.17 444.556L1407.22 451.852L1414.51 451.803L1414.46 444.507L1407.17 444.556Z" fill="#2F829D"></path><path d="M1407.07 433.611L1407.11 440.907L1414.41 440.859L1414.36 433.563L1407.07 433.611Z" fill="#2F829D"></path><path d="M1406.85 400.776L1406.9 408.072L1414.19 408.024L1414.14 400.727L1406.85 400.776Z" fill="#2F829D"></path><path d="M1406.53 345.943L1406.58 353.24L1413.87 353.191L1413.82 345.894L1406.53 345.943Z" fill="#2F829D"></path><path d="M1406.42 334.891L1406.47 342.188L1413.76 342.139L1413.71 334.842L1406.42 334.891Z" fill="#2F829D"></path><path d="M1405.67 225.334L1405.72 232.63L1413.01 232.582L1412.96 225.286L1405.67 225.334Z" fill="#2F829D"></path><path d="M1405.67 214.281L1405.72 221.578L1413.01 221.529L1412.96 214.232L1405.67 214.281Z" fill="#2F829D"></path><path d="M1405.46 192.392L1405.51 199.688L1412.8 199.639L1412.75 192.343L1405.46 192.392Z" fill="#2F829D"></path><path d="M1405.35 170.501L1405.4 177.798L1412.69 177.75L1412.64 170.453L1405.35 170.501Z" fill="#2F829D"></path><path d="M1405.24 148.504L1405.29 155.8L1412.58 155.752L1412.54 148.455L1405.24 148.504Z" fill="#2F829D"></path><path d="M1405.03 115.669L1405.08 122.965L1412.37 122.917L1412.32 115.62L1405.03 115.669Z" fill="#2F829D"></path><path d="M1404.92 104.724L1404.97 112.02L1412.26 111.972L1412.21 104.676L1404.92 104.724Z" fill="#2F829D"></path><path d="M1404.81 93.6718L1404.86 100.968L1412.15 100.92L1412.1 93.6231L1404.81 93.6718Z" fill="#2F829D"></path><path d="M1417.47 400.668L1417.52 407.964L1424.81 407.916L1424.76 400.62L1417.47 400.668Z" fill="#2F829D"></path><path d="M1416.29 225.226L1416.34 232.523L1423.63 232.474L1423.58 225.178L1416.29 225.226Z" fill="#2F829D"></path><path d="M1416.18 214.281L1416.23 221.578L1423.52 221.529L1423.47 214.233L1416.18 214.281Z" fill="#2F829D"></path><path d="M1416.07 192.284L1416.12 199.58L1423.41 199.532L1423.36 192.235L1416.07 192.284Z" fill="#2F829D"></path><path d="M1415.86 170.394L1415.91 177.691L1423.2 177.642L1423.15 170.345L1415.86 170.394Z" fill="#2F829D"></path><path d="M1415.86 159.449L1415.91 166.745L1423.2 166.697L1423.15 159.4L1415.86 159.449Z" fill="#2F829D"></path><path d="M1415.75 148.504L1415.8 155.8L1423.09 155.752L1423.04 148.455L1415.75 148.504Z" fill="#2F829D"></path><path d="M1415.54 115.562L1415.59 122.858L1422.88 122.81L1422.83 115.513L1415.54 115.562Z" fill="#2F829D"></path><path d="M1427.98 400.561L1428.03 407.857L1435.32 407.809L1435.27 400.513L1427.98 400.561Z" fill="#2F829D"></path><path d="M1427.66 356.781L1427.71 364.078L1435 364.029L1434.95 356.732L1427.66 356.781Z" fill="#2F829D"></path><path d="M1427.65 345.728L1427.7 353.025L1435 352.976L1434.95 345.68L1427.65 345.728Z" fill="#2F829D"></path><path d="M1427.55 334.783L1427.6 342.08L1434.89 342.032L1434.84 334.735L1427.55 334.783Z" fill="#2F829D"></path><path d="M1427.33 301.949L1427.38 309.245L1434.68 309.196L1434.63 301.899L1427.33 301.949Z" fill="#2F829D"></path><path d="M1427.01 258.061L1427.06 265.358L1434.35 265.31L1434.3 258.013L1427.01 258.061Z" fill="#2F829D"></path><path d="M1427.01 247.116L1427.06 254.412L1434.35 254.364L1434.3 247.068L1427.01 247.116Z" fill="#2F829D"></path><path d="M1426.05 115.562L1426.1 122.858L1433.39 122.81L1433.34 115.514L1426.05 115.562Z" fill="#2F829D"></path><path d="M1394.2 71.8885L1394.24 79.1851L1401.54 79.137L1401.49 71.8404L1394.2 71.8885Z" fill="white"></path><path d="M1405.78 236.278L1405.83 243.575L1413.12 243.527L1413.07 236.23L1405.78 236.278Z" fill="white"></path><path d="M1404.71 71.7816L1404.76 79.0781L1412.05 79.0294L1412 71.7329L1404.71 71.7816Z" fill="white"></path><path d="M1427.44 312.893L1427.49 320.19L1434.78 320.141L1434.73 312.844L1427.44 312.893Z" fill="white"></path><path d="M1425.94 93.5643L1425.99 100.861L1433.28 100.812L1433.23 93.5157L1425.94 93.5643Z" fill="white"></path></g><g opacity="0.04" clip-path="url(#clip1_282_5879)"><path d="M194.459 159.494L194.41 152.198L187.118 152.246L187.167 159.543L194.459 159.494Z" fill="#49A6CC"></path><path d="M179.337 181.384L179.289 174.088L171.997 174.136L172.045 181.432L179.337 181.384Z" fill="#49A6CC"></path><path d="M179.445 203.275L179.396 195.978L172.104 196.026L172.152 203.323L179.445 203.275Z" fill="#49A6CC"></path><path d="M179.552 214.219L179.504 206.923L172.212 206.971L172.26 214.267L179.552 214.219Z" fill="#49A6CC"></path><path d="M179.767 247.162L179.719 239.865L172.427 239.914L172.475 247.21L179.767 247.162Z" fill="#49A6CC"></path><path d="M179.98 269.051L179.932 261.755L172.639 261.803L172.688 269.1L179.98 269.051Z" fill="#49A6CC"></path><path d="M180.088 290.941L180.039 283.645L172.747 283.694L172.796 290.99L180.088 290.941Z" fill="#49A6CC"></path><path d="M16.761 411.766L16.7129 404.469L9.4207 404.517L9.46876 411.814L16.761 411.766Z" fill="#49A6CC"></path><path d="M183.841 148.549L183.793 141.253L176.501 141.301L176.549 148.597L183.841 148.549Z" fill="#49A6CC"></path><path d="M183.842 159.494L183.793 152.198L176.501 152.247L176.55 159.543L183.842 159.494Z" fill="#49A6CC"></path><path d="M184.056 181.491L184.008 174.195L176.716 174.243L176.764 181.54L184.056 181.491Z" fill="#49A6CC"></path><path d="M184.163 203.382L184.115 196.085L176.823 196.133L176.871 203.43L184.163 203.382Z" fill="#49A6CC"></path><path d="M169.257 247.161L169.209 239.865L161.917 239.913L161.965 247.21L169.257 247.161Z" fill="#49A6CC"></path><path d="M169.365 269.159L169.316 261.862L162.024 261.911L162.073 269.207L169.365 269.159Z" fill="#49A6CC"></path><path d="M169.472 280.104L169.424 272.807L162.132 272.856L162.18 280.152L169.472 280.104Z" fill="#49A6CC"></path><path d="M6.35915 433.763L6.31055 426.466L-0.981642 426.515L-0.93304 433.811L6.35915 433.763Z" fill="#49A6CC"></path><path d="M172.689 60.8817L172.641 53.5852L165.348 53.6334L165.397 60.9299L172.689 60.8817Z" fill="#49A6CC"></path><path d="M172.794 71.8268L172.746 64.5303L165.454 64.5784L165.502 71.8749L172.794 71.8268Z" fill="#49A6CC"></path><path d="M172.904 93.8243L172.855 86.5278L165.563 86.5759L165.611 93.8724L172.904 93.8243Z" fill="#49A6CC"></path><path d="M173.224 148.657L173.176 141.36L165.884 141.409L165.932 148.705L173.224 148.657Z" fill="#49A6CC"></path><path d="M173.332 159.601L173.283 152.305L165.991 152.354L166.04 159.65L173.332 159.601Z" fill="#49A6CC"></path><path d="M173.439 181.492L173.391 174.196L166.098 174.244L166.147 181.54L173.439 181.492Z" fill="#49A6CC"></path><path d="M173.547 192.436L173.498 185.14L166.206 185.189L166.254 192.485L173.547 192.436Z" fill="#49A6CC"></path><path d="M173.654 203.489L173.605 196.192L166.313 196.241L166.362 203.537L173.654 203.489Z" fill="#49A6CC"></path><path d="M173.654 214.434L173.605 207.138L166.313 207.186L166.361 214.482L173.654 214.434Z" fill="#49A6CC"></path><path d="M173.869 247.269L173.82 239.973L166.528 240.021L166.577 247.318L173.869 247.269Z" fill="#49A6CC"></path><path d="M174.084 269.266L174.035 261.969L166.743 262.018L166.792 269.315L174.084 269.266Z" fill="#49A6CC"></path><path d="M174.083 280.212L174.035 272.915L166.743 272.963L166.791 280.26L174.083 280.212Z" fill="#49A6CC"></path><path d="M174.189 291.156L174.141 283.86L166.848 283.908L166.897 291.204L174.189 291.156Z" fill="#49A6CC"></path><path d="M161.749 6.1571L161.701 -1.1394L154.409 -1.09121L154.457 6.20529L161.749 6.1571Z" fill="#49A6CC"></path><path d="M161.965 39.099L161.916 31.8025L154.624 31.8516L154.673 39.1482L161.965 39.099Z" fill="#49A6CC"></path><path d="M162.072 50.0441L162.023 42.7476L154.731 42.7963L154.78 50.0928L162.072 50.0441Z" fill="#49A6CC"></path><path d="M162.072 60.9899L162.023 53.6934L154.731 53.7415L154.779 61.038L162.072 60.9899Z" fill="#49A6CC"></path><path d="M162.179 71.9345L162.131 64.6379L154.839 64.6866L154.887 71.9831L162.179 71.9345Z" fill="#49A6CC"></path><path d="M162.285 82.8788L162.236 75.5823L154.944 75.6314L154.993 82.928L162.285 82.8788Z" fill="#49A6CC"></path><path d="M162.394 93.8238L162.346 86.5273L155.054 86.5755L155.102 93.872L162.394 93.8238Z" fill="#49A6CC"></path><path d="M163.144 214.434L163.096 207.137L155.804 207.186L155.852 214.482L163.144 214.434Z" fill="#49A6CC"></path><path d="M163.359 247.376L163.311 240.08L156.018 240.128L156.067 247.425L163.359 247.376Z" fill="#49A6CC"></path><path d="M151.67 72.0411L151.621 64.7446L144.329 64.7933L144.378 72.0898L151.67 72.0411Z" fill="#49A6CC"></path><path d="M151.67 82.9867L151.621 75.6902L144.329 75.7394L144.378 83.0359L151.67 82.9867Z" fill="#49A6CC"></path><path d="M152.099 137.819L152.051 130.522L144.759 130.571L144.807 137.867L152.099 137.819Z" fill="#49A6CC"></path><path d="M152.312 170.654L152.264 163.357L144.971 163.405L145.02 170.702L152.312 170.654Z" fill="#49A6CC"></path><path d="M152.42 192.651L152.371 185.355L145.079 185.404L145.128 192.7L152.42 192.651Z" fill="#49A6CC"></path><path d="M152.527 203.596L152.479 196.3L145.186 196.348L145.235 203.645L152.527 203.596Z" fill="#49A6CC"></path><path d="M152.849 247.483L152.801 240.187L145.509 240.235L145.557 247.532L152.849 247.483Z" fill="#49A6CC"></path><path d="M153.064 291.264L153.016 283.967L145.723 284.015L145.771 291.312L153.064 291.264Z" fill="#49A6CC"></path><path d="M140.837 39.2069L140.789 31.9104L133.497 31.9585L133.545 39.255L140.837 39.2069Z" fill="#49A6CC"></path><path d="M141.053 61.0961L141.004 53.7996L133.712 53.8487L133.761 61.1452L141.053 61.0961Z" fill="#49A6CC"></path><path d="M141.053 72.0419L141.004 64.7454L133.712 64.794L133.76 72.0905L141.053 72.0419Z" fill="#49A6CC"></path><path d="M141.48 137.819L141.432 130.523L134.139 130.571L134.188 137.868L141.48 137.819Z" fill="#49A6CC"></path><path d="M142.017 203.703L141.969 196.406L134.677 196.455L134.725 203.752L142.017 203.703Z" fill="#49A6CC"></path><path d="M142.232 236.538L142.184 229.242L134.891 229.29L134.939 236.586L142.232 236.538Z" fill="#49A6CC"></path><path d="M142.554 291.371L142.506 284.074L135.214 284.123L135.262 291.419L142.554 291.371Z" fill="#49A6CC"></path><path d="M130.543 72.1486L130.494 64.8521L123.202 64.9012L123.251 72.1977L130.543 72.1486Z" fill="#49A6CC"></path><path d="M130.65 83.0936L130.602 75.7971L123.309 75.8458L123.358 83.1423L130.65 83.0936Z" fill="#49A6CC"></path><path d="M130.972 137.926L130.924 130.63L123.632 130.678L123.68 137.974L130.972 137.926Z" fill="#49A6CC"></path><path d="M131.187 170.868L131.139 163.572L123.846 163.62L123.895 170.917L131.187 170.868Z" fill="#49A6CC"></path><path d="M131.295 181.813L131.246 174.517L123.954 174.565L124.003 181.862L131.295 181.813Z" fill="#49A6CC"></path><path d="M131.295 192.759L131.246 185.462L123.954 185.511L124.003 192.808L131.295 192.759Z" fill="#49A6CC"></path><path d="M131.402 203.704L131.354 196.407L124.061 196.455L124.109 203.752L131.402 203.704Z" fill="#49A6CC"></path><path d="M131.507 214.648L131.459 207.352L124.167 207.4L124.215 214.696L131.507 214.648Z" fill="#49A6CC"></path><path d="M131.616 236.646L131.566 229.349L124.274 229.399L124.323 236.695L131.616 236.646Z" fill="#49A6CC"></path><path d="M131.722 258.536L131.674 251.24L124.382 251.288L124.43 258.584L131.722 258.536Z" fill="#49A6CC"></path><path d="M131.829 269.481L131.781 262.185L124.489 262.233L124.537 269.529L131.829 269.481Z" fill="#49A6CC"></path><path d="M131.937 280.426L131.889 273.129L124.596 273.178L124.645 280.474L131.937 280.426Z" fill="#49A6CC"></path><path d="M132.044 291.478L131.996 284.181L124.704 284.229L124.752 291.526L132.044 291.478Z" fill="#49A6CC"></path><path d="M120.463 138.033L120.414 130.737L113.122 130.785L113.17 138.082L120.463 138.033Z" fill="#49A6CC"></path><path d="M120.677 181.814L120.629 174.517L113.337 174.565L113.385 181.862L120.677 181.814Z" fill="#49A6CC"></path><path d="M120.784 192.866L120.736 185.57L113.444 185.618L113.492 192.914L120.784 192.866Z" fill="#49A6CC"></path><path d="M120.892 203.811L120.844 196.514L113.552 196.562L113.6 203.859L120.892 203.811Z" fill="#49A6CC"></path><path d="M109.417 61.3109L109.369 54.0144L102.077 54.0625L102.125 61.359L109.417 61.3109Z" fill="#49A6CC"></path><path d="M109.416 72.2562L109.367 64.9597L102.075 65.0083L102.124 72.3048L109.416 72.2562Z" fill="#49A6CC"></path><path d="M109.631 94.2531L109.582 86.9565L102.29 87.0052L102.338 94.3017L109.631 94.2531Z" fill="#49A6CC"></path><path d="M109.631 105.199L109.582 97.9021L102.29 97.9507L102.338 105.247L109.631 105.199Z" fill="#49A6CC"></path><path d="M109.739 116.143L109.689 108.847L102.397 108.896L102.446 116.192L109.739 116.143Z" fill="#49A6CC"></path><path d="M110.06 170.976L110.012 163.679L102.72 163.728L102.768 171.025L110.06 170.976Z" fill="#49A6CC"></path><path d="M110.168 181.921L110.119 174.624L102.827 174.673L102.876 181.969L110.168 181.921Z" fill="#49A6CC"></path><path d="M110.597 247.698L110.549 240.402L103.257 240.45L103.305 247.746L110.597 247.698Z" fill="#49A6CC"></path><path d="M98.6932 39.4208L98.6445 32.1243L91.3524 32.1729L91.401 39.4694L98.6932 39.4208Z" fill="#49A6CC"></path><path d="M98.6937 50.4735L98.6445 43.177L91.3524 43.2262L91.4015 50.5227L98.6937 50.4735Z" fill="#49A6CC"></path><path d="M98.8 61.4186L98.752 54.1221L91.4598 54.1702L91.5078 61.4667L98.8 61.4186Z" fill="#49A6CC"></path><path d="M98.9074 72.3634L98.8594 65.0669L91.5672 65.115L91.6153 72.4115L98.9074 72.3634Z" fill="#49A6CC"></path><path d="M98.9075 83.309L98.8594 76.0125L91.5672 76.0607L91.6154 83.3572L98.9075 83.309Z" fill="#49A6CC"></path><path d="M99.0129 94.2538L98.9648 86.9573L91.6727 87.0054L91.7207 94.3019L99.0129 94.2538Z" fill="#49A6CC"></path><path d="M99.5501 171.083L99.502 163.787L92.2098 163.835L92.2579 171.131L99.5501 171.083Z" fill="#49A6CC"></path><path d="M99.6574 182.028L99.6094 174.731L92.3172 174.779L92.3653 182.076L99.6574 182.028Z" fill="#49A6CC"></path><path d="M99.6574 192.974L99.6094 185.677L92.3172 185.725L92.3653 193.022L99.6574 192.974Z" fill="#49A6CC"></path><path d="M99.9802 236.86L99.9316 229.564L92.6395 229.612L92.6881 236.909L99.9802 236.86Z" fill="#49A6CC"></path><path d="M100.193 269.695L100.145 262.399L92.8524 262.447L92.9009 269.744L100.193 269.695Z" fill="#49A6CC"></path><path d="M100.301 280.64L100.252 273.344L92.9598 273.392L93.0084 280.689L100.301 280.64Z" fill="#49A6CC"></path><path d="M100.303 291.693L100.254 284.396L92.9617 284.445L93.0103 291.741L100.303 291.693Z" fill="#49A6CC"></path><path d="M88.5051 94.3607L88.457 87.0642L81.1649 87.1123L81.2129 94.4088L88.5051 94.3607Z" fill="#49A6CC"></path><path d="M89.3625 225.915L89.3145 218.619L82.0223 218.667L82.0703 225.964L89.3625 225.915Z" fill="#49A6CC"></path><path d="M89.6848 280.748L89.6367 273.451L82.3445 273.5L82.3926 280.796L89.6848 280.748Z" fill="#49A6CC"></path><path d="M89.7908 291.693L89.7422 284.396L82.45 284.445L82.4986 291.741L89.7908 291.693Z" fill="#49A6CC"></path><path d="M77.3508 6.69348L77.3027 -0.603027L70.0105 -0.554931L70.0586 6.74157L77.3508 6.69348Z" fill="#49A6CC"></path><path d="M78.2102 138.248L78.1621 130.952L70.8699 131L70.918 138.296L78.2102 138.248Z" fill="#49A6CC"></path><path d="M78.3176 149.3L78.2695 142.004L70.9774 142.052L71.0254 149.349L78.3176 149.3Z" fill="#49A6CC"></path><path d="M78.4237 171.19L78.375 163.894L71.0828 163.943L71.1315 171.239L78.4237 171.19Z" fill="#49A6CC"></path><path d="M78.5305 182.135L78.4824 174.839L71.1902 174.887L71.2383 182.183L78.5305 182.135Z" fill="#49A6CC"></path><path d="M78.5305 193.081L78.4824 185.784L71.1902 185.833L71.2383 193.129L78.5305 193.081Z" fill="#49A6CC"></path><path d="M78.7453 226.023L78.6973 218.727L71.4051 218.775L71.4531 226.071L78.7453 226.023Z" fill="#49A6CC"></path><path d="M79.175 280.855L79.127 273.559L71.8348 273.607L71.8828 280.903L79.175 280.855Z" fill="#49A6CC"></path><path d="M79.2831 291.799L79.2344 284.503L71.9422 284.552L71.9909 291.848L79.2831 291.799Z" fill="#49A6CC"></path><path d="M79.4953 324.635L79.4473 317.338L72.1551 317.386L72.2031 324.683L79.4953 324.635Z" fill="#49A6CC"></path><path d="M79.7107 368.523L79.6621 361.226L72.3699 361.275L72.4186 368.571L79.7107 368.523Z" fill="#49A6CC"></path><path d="M67.1638 61.6329L67.1152 54.3364L59.823 54.385L59.8716 61.6816L67.1638 61.6329Z" fill="#49A6CC"></path><path d="M67.2707 72.5778L67.2227 65.2812L59.9305 65.3294L59.9786 72.6259L67.2707 72.5778Z" fill="#49A6CC"></path><path d="M67.3792 94.4679L67.3301 87.1714L60.0379 87.2206L60.087 94.5171L67.3792 94.4679Z" fill="#49A6CC"></path><path d="M67.7004 138.355L67.6523 131.059L60.3602 131.107L60.4082 138.403L67.7004 138.355Z" fill="#49A6CC"></path><path d="M67.7005 149.301L67.6523 142.004L60.3602 142.052L60.4083 149.349L67.7005 149.301Z" fill="#49A6CC"></path><path d="M67.9144 182.243L67.8652 174.946L60.573 174.995L60.6222 182.292L67.9144 182.243Z" fill="#49A6CC"></path><path d="M68.0213 193.188L67.9727 185.891L60.6805 185.94L60.7291 193.236L68.0213 193.188Z" fill="#49A6CC"></path><path d="M68.2361 226.023L68.1875 218.726L60.8953 218.775L60.9439 226.071L68.2361 226.023Z" fill="#49A6CC"></path><path d="M68.343 248.02L68.2949 240.724L61.0027 240.772L61.0508 248.069L68.343 248.02Z" fill="#49A6CC"></path><path d="M56.3338 28.7982L56.2852 21.5017L48.993 21.5503L49.0416 28.8468L56.3338 28.7982Z" fill="#49A6CC"></path><path d="M56.6535 61.6327L56.6055 54.3362L49.3133 54.3843L49.3613 61.6808L56.6535 61.6327Z" fill="#49A6CC"></path><path d="M56.6541 72.6854L56.6055 65.3889L49.3133 65.4375L49.3619 72.7341L56.6541 72.6854Z" fill="#49A6CC"></path><path d="M57.1912 149.408L57.1426 142.111L49.8504 142.16L49.899 149.456L57.1912 149.408Z" fill="#49A6CC"></path><path d="M57.8333 248.02L57.7852 240.723L50.493 240.772L50.5411 248.068L57.8333 248.02Z" fill="#49A6CC"></path><path d="M57.9412 259.072L57.8926 251.776L50.6004 251.824L50.649 259.121L57.9412 259.072Z" fill="#49A6CC"></path><path d="M57.9406 270.018L57.8926 262.721L50.6004 262.769L50.6484 270.066L57.9406 270.018Z" fill="#49A6CC"></path><path d="M58.4778 346.74L58.4297 339.443L51.1375 339.491L51.1856 346.788L58.4778 346.74Z" fill="#49A6CC"></path><path d="M58.5852 357.684L58.5371 350.388L51.2449 350.436L51.293 357.733L58.5852 357.684Z" fill="#49A6CC"></path><path d="M58.6907 368.629L58.6426 361.333L51.3504 361.381L51.3985 368.677L58.6907 368.629Z" fill="#49A6CC"></path><path d="M45.824 28.9052L45.7754 21.6086L38.4832 21.6573L38.5318 28.9538L45.824 28.9052Z" fill="#49A6CC"></path><path d="M45.9309 50.7958L45.8828 43.4993L38.5906 43.5474L38.6387 50.8439L45.9309 50.7958Z" fill="#49A6CC"></path><path d="M46.0383 61.7406L45.9902 54.4441L38.698 54.4922L38.7461 61.7887L46.0383 61.7406Z" fill="#49A6CC"></path><path d="M46.1448 83.6305L46.0957 76.334L38.8035 76.3832L38.8527 83.6796L46.1448 83.6305Z" fill="#49A6CC"></path><path d="M46.2526 94.683L46.2051 87.3865L38.9129 87.434L38.9604 94.7305L46.2526 94.683Z" fill="#49A6CC"></path><path d="M46.3586 105.628L46.3105 98.3313L39.0184 98.3794L39.0664 105.676L46.3586 105.628Z" fill="#49A6CC"></path><path d="M46.466 116.572L46.418 109.276L39.1258 109.324L39.1738 116.62L46.466 116.572Z" fill="#49A6CC"></path><path d="M46.574 138.463L46.5254 131.166L39.2332 131.215L39.2818 138.511L46.574 138.463Z" fill="#49A6CC"></path><path d="M47.0031 204.24L46.9551 196.944L39.6629 196.992L39.711 204.288L47.0031 204.24Z" fill="#49A6CC"></path><path d="M47.1106 215.292L47.0625 207.995L39.7703 208.043L39.8184 215.34L47.1106 215.292Z" fill="#49A6CC"></path><path d="M47.1111 226.237L47.0625 218.941L39.7703 218.99L39.8189 226.286L47.1111 226.237Z" fill="#49A6CC"></path><path d="M47.3235 259.073L47.2754 251.776L39.9832 251.824L40.0313 259.121L47.3235 259.073Z" fill="#49A6CC"></path><path d="M47.432 270.017L47.3828 262.721L40.0906 262.77L40.1398 270.066L47.432 270.017Z" fill="#49A6CC"></path><path d="M47.968 346.847L47.9199 339.55L40.6277 339.598L40.6758 346.895L47.968 346.847Z" fill="#49A6CC"></path><path d="M48.0754 368.737L48.0273 361.44L40.7352 361.489L40.7832 368.785L48.0754 368.737Z" fill="#49A6CC"></path><path d="M48.1814 390.627L48.1328 383.331L40.8406 383.379L40.8892 390.676L48.1814 390.627Z" fill="#49A6CC"></path><path d="M48.2908 401.679L48.2422 394.383L40.95 394.431L40.9986 401.728L48.2908 401.679Z" fill="#49A6CC"></path><path d="M35.9573 138.57L35.9082 131.274L28.616 131.323L28.6651 138.619L35.9573 138.57Z" fill="#49A6CC"></path><path d="M36.6008 226.237L36.5527 218.941L29.2605 218.989L29.3086 226.286L36.6008 226.237Z" fill="#49A6CC"></path><path d="M36.7088 248.235L36.6602 240.938L29.368 240.987L29.4166 248.283L36.7088 248.235Z" fill="#49A6CC"></path><path d="M36.8148 259.179L36.7656 251.883L29.4734 251.932L29.5226 259.228L36.8148 259.179Z" fill="#49A6CC"></path><path d="M24.5885 7.01575L24.541 -0.280762L17.2488 -0.233231L17.2963 7.06328L24.5885 7.01575Z" fill="#49A6CC"></path><path d="M25.1267 83.8446L25.0781 76.5481L17.7859 76.5967L17.8345 83.8932L25.1267 83.8446Z" fill="#49A6CC"></path><path d="M25.1262 94.7904L25.0781 87.4939L17.7859 87.542L17.834 94.8385L25.1262 94.7904Z" fill="#49A6CC"></path><path d="M25.4475 138.677L25.3984 131.381L18.1063 131.43L18.1554 138.726L25.4475 138.677Z" fill="#49A6CC"></path><path d="M25.7693 182.457L25.7207 175.161L18.4285 175.209L18.4771 182.506L25.7693 182.457Z" fill="#49A6CC"></path><path d="M25.9836 215.4L25.9355 208.103L18.6434 208.151L18.6915 215.448L25.9836 215.4Z" fill="#49A6CC"></path><path d="M26.197 248.234L26.1484 240.938L18.8562 240.987L18.9048 248.283L26.197 248.234Z" fill="#49A6CC"></path><path d="M26.3059 259.287L26.2578 251.99L18.9656 252.038L19.0137 259.335L26.3059 259.287Z" fill="#49A6CC"></path><path d="M26.3059 270.232L26.2578 262.936L18.9656 262.984L19.0137 270.28L26.3059 270.232Z" fill="#49A6CC"></path><path d="M26.5193 303.067L26.4707 295.771L19.1785 295.819L19.2271 303.116L26.5193 303.067Z" fill="#49A6CC"></path><path d="M26.6282 314.119L26.5801 306.823L19.2879 306.871L19.3361 314.167L26.6282 314.119Z" fill="#49A6CC"></path><path d="M26.7347 325.064L26.6855 317.768L19.3934 317.817L19.4425 325.113L26.7347 325.064Z" fill="#49A6CC"></path><path d="M26.8411 346.954L26.793 339.658L19.5008 339.706L19.5489 347.002L26.8411 346.954Z" fill="#49A6CC"></path><path d="M26.949 357.899L26.9004 350.603L19.6082 350.651L19.6568 357.948L26.949 357.899Z" fill="#49A6CC"></path><path d="M27.1634 390.841L27.1152 383.545L19.823 383.593L19.8712 390.89L27.1634 390.841Z" fill="#49A6CC"></path><path d="M27.1633 401.787L27.1152 394.49L19.823 394.539L19.8711 401.835L27.1633 401.787Z" fill="#49A6CC"></path><path d="M14.1867 29.0128L14.1387 21.7163L6.8465 21.7644L6.89457 29.0609L14.1867 29.0128Z" fill="#49A6CC"></path><path d="M14.509 83.8451L14.4609 76.5486L7.16875 76.5967L7.21682 83.8932L14.509 83.8451Z" fill="#49A6CC"></path><path d="M14.9373 138.677L14.8887 131.381L7.59648 131.429L7.64508 138.726L14.9373 138.677Z" fill="#49A6CC"></path><path d="M14.9372 149.622L14.8887 142.326L7.59648 142.375L7.64506 149.671L14.9372 149.622Z" fill="#49A6CC"></path><path d="M15.0447 160.675L14.9961 153.378L7.70391 153.427L7.75251 160.723L15.0447 160.675Z" fill="#49A6CC"></path><path d="M15.6892 259.287L15.6406 251.99L8.34844 252.039L8.39704 259.336L15.6892 259.287Z" fill="#49A6CC"></path><path d="M16.0101 303.174L15.9609 295.877L8.66875 295.927L8.71789 303.223L16.0101 303.174Z" fill="#49A6CC"></path><path d="M4.10719 105.842L4.05859 98.5459L-3.23359 98.5945L-3.185 105.891L4.10719 105.842Z" fill="#49A6CC"></path><path d="M4.2146 116.894L4.16602 109.598L-3.12617 109.647L-3.07759 116.943L4.2146 116.894Z" fill="#49A6CC"></path><path d="M4.32204 127.839L4.27344 120.543L-3.01875 120.591L-2.97015 127.888L4.32204 127.839Z" fill="#49A6CC"></path><path d="M4.3215 138.785L4.27344 131.488L-3.01875 131.536L-2.97069 138.833L4.3215 138.785Z" fill="#49A6CC"></path><path d="M4.42707 149.73L4.37891 142.433L-2.91328 142.481L-2.86511 149.778L4.42707 149.73Z" fill="#49A6CC"></path><path d="M4.64289 182.672L4.59375 175.375L-2.69844 175.424L-2.6493 182.721L4.64289 182.672Z" fill="#49A6CC"></path><path d="M4.85665 215.507L4.80859 208.211L-2.48359 208.259L-2.43553 215.555L4.85665 215.507Z" fill="#49A6CC"></path><path d="M5.17893 259.394L5.13086 252.097L-2.16133 252.146L-2.11326 259.442L5.17893 259.394Z" fill="#49A6CC"></path><path d="M5.17903 270.34L5.13086 263.043L-2.16133 263.091L-2.11316 270.388L5.17903 270.34Z" fill="#49A6CC"></path><path d="M5.28635 281.284L5.23828 273.988L-2.05391 274.036L-2.00584 281.332L5.28635 281.284Z" fill="#49A6CC"></path><path d="M5.39378 303.282L5.3457 295.985L-1.94649 296.033L-1.89841 303.33L5.39378 303.282Z" fill="#49A6CC"></path><path d="M5.6072 325.171L5.55859 317.875L-1.73358 317.924L-1.68498 325.22L5.6072 325.171Z" fill="#49A6CC"></path><path d="M6.03592 390.949L5.98828 383.652L-1.30391 383.7L-1.25627 390.997L6.03592 390.949Z" fill="#49A6CC"></path><path d="M194.244 137.497L194.195 130.2L186.903 130.25L186.952 137.546L194.244 137.497Z" fill="#2F829D"></path><path d="M194.351 148.442L194.303 141.146L187.011 141.194L187.059 148.491L194.351 148.442Z" fill="#2F829D"></path><path d="M179.445 192.329L179.396 185.033L172.104 185.081L172.152 192.377L179.445 192.329Z" fill="#2F829D"></path><path d="M179.765 236.109L179.717 228.812L172.425 228.861L172.473 236.157L179.765 236.109Z" fill="#2F829D"></path><path d="M16.8689 433.763L16.8203 426.467L9.52814 426.515L9.57674 433.812L16.8689 433.763Z" fill="#2F829D"></path><path d="M183.733 137.605L183.686 130.308L176.393 130.356L176.441 137.652L183.733 137.605Z" fill="#2F829D"></path><path d="M184.056 192.437L184.008 185.14L176.716 185.189L176.764 192.486L184.056 192.437Z" fill="#2F829D"></path><path d="M184.376 236.217L184.328 228.92L177.036 228.968L177.084 236.265L184.376 236.217Z" fill="#2F829D"></path><path d="M6.14376 411.873L6.0957 404.577L-1.19647 404.625L-1.14841 411.921L6.14376 411.873Z" fill="#2F829D"></path><path d="M173.011 104.769L172.963 97.4724L165.671 97.5206L165.719 104.817L173.011 104.769Z" fill="#2F829D"></path><path d="M173.009 115.715L172.961 108.418L165.669 108.466L165.717 115.763L173.009 115.715Z" fill="#2F829D"></path><path d="M173.438 170.547L173.391 163.25L166.098 163.298L166.146 170.594L173.438 170.547Z" fill="#2F829D"></path><path d="M173.974 258.214L173.926 250.917L166.634 250.966L166.682 258.262L173.974 258.214Z" fill="#2F829D"></path><path d="M162.394 104.877L162.346 97.5803L155.054 97.6284L155.102 104.925L162.394 104.877Z" fill="#2F829D"></path><path d="M162.501 115.822L162.453 108.525L155.161 108.573L155.209 115.87L162.501 115.822Z" fill="#2F829D"></path><path d="M151.884 104.877L151.836 97.5801L144.544 97.6283L144.592 104.925L151.884 104.877Z" fill="#2F829D"></path><path d="M151.883 115.822L151.834 108.525L144.542 108.574L144.59 115.871L151.883 115.822Z" fill="#2F829D"></path><path d="M152.204 159.709L152.156 152.413L144.864 152.461L144.912 159.757L152.204 159.709Z" fill="#2F829D"></path><path d="M152.421 181.706L152.373 174.409L145.081 174.458L145.129 181.754L152.421 181.706Z" fill="#2F829D"></path><path d="M152.635 214.541L152.586 207.244L145.294 207.293L145.343 214.59L152.635 214.541Z" fill="#2F829D"></path><path d="M152.957 269.374L152.908 262.077L145.616 262.126L145.665 269.422L152.957 269.374Z" fill="#2F829D"></path><path d="M153.064 280.318L153.016 273.022L145.723 273.07L145.771 280.366L153.064 280.318Z" fill="#2F829D"></path><path d="M141.267 104.984L141.219 97.6877L133.927 97.7358L133.975 105.032L141.267 104.984Z" fill="#2F829D"></path><path d="M141.697 159.816L141.648 152.52L134.356 152.568L134.404 159.864L141.697 159.816Z" fill="#2F829D"></path><path d="M141.803 181.706L141.754 174.41L134.462 174.458L134.51 181.755L141.803 181.706Z" fill="#2F829D"></path><path d="M142.448 269.48L142.398 262.184L135.106 262.233L135.155 269.53L142.448 269.48Z" fill="#2F829D"></path><path d="M142.447 280.426L142.398 273.129L135.106 273.177L135.154 280.474L142.447 280.426Z" fill="#2F829D"></path><path d="M130.327 39.2067L130.279 31.9102L122.987 31.9583L123.035 39.2548L130.327 39.2067Z" fill="#2F829D"></path><path d="M130.435 61.204L130.387 53.9075L123.095 53.9561L123.143 61.2526L130.435 61.204Z" fill="#2F829D"></path><path d="M130.758 105.091L130.709 97.7944L123.417 97.8436L123.466 105.14L130.758 105.091Z" fill="#2F829D"></path><path d="M131.079 159.817L131.031 152.52L123.739 152.568L123.787 159.865L131.079 159.817Z" fill="#2F829D"></path><path d="M131.722 247.591L131.674 240.294L124.382 240.343L124.43 247.639L131.722 247.591Z" fill="#2F829D"></path><path d="M119.818 39.3133L119.77 32.0168L112.477 32.0655L112.526 39.362L119.818 39.3133Z" fill="#2F829D"></path><path d="M119.818 50.2589L119.77 42.9624L112.477 43.0111L112.526 50.3076L119.818 50.2589Z" fill="#2F829D"></path><path d="M119.926 61.2037L119.877 53.9072L112.585 53.9559L112.633 61.2524L119.926 61.2037Z" fill="#2F829D"></path><path d="M120.57 159.923L120.521 152.627L113.229 152.676L113.278 159.972L120.57 159.923Z" fill="#2F829D"></path><path d="M109.952 149.086L109.904 141.789L102.612 141.838L102.66 149.134L109.952 149.086Z" fill="#2F829D"></path><path d="M110.06 160.03L110.012 152.734L102.72 152.783L102.768 160.079L110.06 160.03Z" fill="#2F829D"></path><path d="M110.275 203.811L110.227 196.514L102.934 196.563L102.983 203.859L110.275 203.811Z" fill="#2F829D"></path><path d="M110.382 214.863L110.334 207.567L103.042 207.615L103.09 214.911L110.382 214.863Z" fill="#2F829D"></path><path d="M110.702 258.643L110.654 251.346L103.362 251.395L103.41 258.691L110.702 258.643Z" fill="#2F829D"></path><path d="M110.704 269.696L110.656 262.399L103.364 262.447L103.412 269.744L110.704 269.696Z" fill="#2F829D"></path><path d="M110.812 280.64L110.764 273.344L103.471 273.392L103.52 280.689L110.812 280.64Z" fill="#2F829D"></path><path d="M99.3352 138.141L99.2871 130.844L91.9949 130.892L92.043 138.189L99.3352 138.141Z" fill="#2F829D"></path><path d="M99.4431 149.085L99.3945 141.789L92.1023 141.837L92.1509 149.134L99.4431 149.085Z" fill="#2F829D"></path><path d="M99.4427 160.031L99.3945 152.734L92.1023 152.783L92.1505 160.079L99.4427 160.031Z" fill="#2F829D"></path><path d="M99.765 203.918L99.7168 196.622L92.4246 196.67L92.4728 203.966L99.765 203.918Z" fill="#2F829D"></path><path d="M99.8723 214.863L99.8242 207.566L92.532 207.615L92.5801 214.911L99.8723 214.863Z" fill="#2F829D"></path><path d="M99.8723 225.916L99.8242 218.619L92.532 218.667L92.5801 225.964L99.8723 225.916Z" fill="#2F829D"></path><path d="M88.2903 72.4711L88.2422 65.1746L80.95 65.2227L80.9981 72.5192L88.2903 72.4711Z" fill="#2F829D"></path><path d="M88.5052 105.306L88.457 98.0098L81.1649 98.058L81.213 105.354L88.5052 105.306Z" fill="#2F829D"></path><path d="M88.6126 116.251L88.5645 108.954L81.2723 109.003L81.3204 116.299L88.6126 116.251Z" fill="#2F829D"></path><path d="M88.9339 160.138L88.8848 152.841L81.5926 152.89L81.6417 160.187L88.9339 160.138Z" fill="#2F829D"></path><path d="M89.0403 182.028L88.9922 174.732L81.7 174.78L81.7481 182.076L89.0403 182.028Z" fill="#2F829D"></path><path d="M89.1478 193.08L89.0996 185.784L81.8074 185.832L81.8556 193.129L89.1478 193.08Z" fill="#2F829D"></path><path d="M89.2551 204.025L89.207 196.729L81.9148 196.777L81.9629 204.073L89.2551 204.025Z" fill="#2F829D"></path><path d="M90.5422 401.357L90.4941 394.061L83.202 394.109L83.25 401.405L90.5422 401.357Z" fill="#2F829D"></path><path d="M77.5656 39.6359L77.5176 32.3394L70.2254 32.3875L70.2735 39.684L77.5656 39.6359Z" fill="#2F829D"></path><path d="M77.6736 61.5258L77.625 54.2292L70.3328 54.2779L70.3814 61.5744L77.6736 61.5258Z" fill="#2F829D"></path><path d="M77.781 72.4708L77.7324 65.1743L70.4402 65.2229L70.4888 72.5194L77.781 72.4708Z" fill="#2F829D"></path><path d="M78.1028 116.358L78.0547 109.062L70.7625 109.11L70.8106 116.406L78.1028 116.358Z" fill="#2F829D"></path><path d="M78.3181 160.246L78.2695 152.949L70.9774 152.998L71.0259 160.294L78.3181 160.246Z" fill="#2F829D"></path><path d="M78.7454 215.078L78.6973 207.781L71.4051 207.829L71.4533 215.126L78.7454 215.078Z" fill="#2F829D"></path><path d="M79.6033 346.632L79.5547 339.336L72.2625 339.384L72.3111 346.681L79.6033 346.632Z" fill="#2F829D"></path><path d="M79.7107 357.577L79.6621 350.281L72.3699 350.329L72.4185 357.626L79.7107 357.577Z" fill="#2F829D"></path><path d="M79.925 390.519L79.877 383.223L72.5848 383.271L72.6328 390.567L79.925 390.519Z" fill="#2F829D"></path><path d="M79.925 401.465L79.877 394.168L72.5848 394.217L72.6328 401.513L79.925 401.465Z" fill="#2F829D"></path><path d="M66.843 6.80042L66.7949 -0.496094L59.5027 -0.447998L59.5508 6.84851L66.843 6.80042Z" fill="#2F829D"></path><path d="M67.0569 39.6351L67.0078 32.3386L59.7156 32.3878L59.7647 39.6843L67.0569 39.6351Z" fill="#2F829D"></path><path d="M67.4856 105.413L67.4375 98.1165L60.1453 98.1646L60.1934 105.461L67.4856 105.413Z" fill="#2F829D"></path><path d="M67.4856 116.466L67.4375 109.169L60.1453 109.217L60.1934 116.514L67.4856 116.466Z" fill="#2F829D"></path><path d="M67.8079 160.245L67.7598 152.949L60.4676 152.997L60.5157 160.294L67.8079 160.245Z" fill="#2F829D"></path><path d="M68.1287 204.132L68.0801 196.836L60.7879 196.885L60.8365 204.181L68.1287 204.132Z" fill="#2F829D"></path><path d="M68.1281 215.078L68.0801 207.781L60.7879 207.83L60.8359 215.126L68.1281 215.078Z" fill="#2F829D"></path><path d="M68.5589 280.855L68.5098 273.559L61.2176 273.608L61.2667 280.905L68.5589 280.855Z" fill="#2F829D"></path><path d="M69.0935 346.632L69.0449 339.335L61.7527 339.384L61.8013 346.681L69.0935 346.632Z" fill="#2F829D"></path><path d="M69.3079 390.52L69.2598 383.223L61.9676 383.272L62.0158 390.568L69.3079 390.52Z" fill="#2F829D"></path><path d="M69.4154 401.464L69.3672 394.168L62.075 394.216L62.1232 401.513L69.4154 401.464Z" fill="#2F829D"></path><path d="M56.2259 6.80091L56.1777 -0.495605L48.8855 -0.44741L48.9337 6.8491L56.2259 6.80091Z" fill="#2F829D"></path><path d="M56.4392 39.7433L56.3906 32.4468L49.0984 32.4954L49.147 39.7919L56.4392 39.7433Z" fill="#2F829D"></path><path d="M57.4041 182.243L57.3555 174.946L50.0633 174.995L50.1119 182.291L57.4041 182.243Z" fill="#2F829D"></path><path d="M57.5134 204.24L57.4648 196.944L50.1727 196.992L50.2213 204.289L57.5134 204.24Z" fill="#2F829D"></path><path d="M57.619 215.185L57.5703 207.888L50.2781 207.937L50.3268 215.234L57.619 215.185Z" fill="#2F829D"></path><path d="M58.0481 280.963L58 273.666L50.7078 273.714L50.7559 281.011L58.0481 280.963Z" fill="#2F829D"></path><path d="M58.3709 324.85L58.3223 317.553L51.0301 317.602L51.0787 324.898L58.3709 324.85Z" fill="#2F829D"></path><path d="M45.9314 39.8502L45.8828 32.5537L38.5906 32.6023L38.6392 39.8988L45.9314 39.8502Z" fill="#2F829D"></path><path d="M46.6815 149.407L46.6328 142.111L39.3406 142.16L39.3893 149.456L46.6815 149.407Z" fill="#2F829D"></path><path d="M46.6814 160.46L46.6328 153.164L39.3406 153.212L39.3892 160.509L46.6814 160.46Z" fill="#2F829D"></path><path d="M46.8963 182.35L46.8477 175.053L39.5555 175.102L39.6041 182.398L46.8963 182.35Z" fill="#2F829D"></path><path d="M46.8958 193.295L46.8477 185.999L39.5555 186.047L39.6037 193.343L46.8958 193.295Z" fill="#2F829D"></path><path d="M47.5388 281.069L47.4902 273.773L40.198 273.822L40.2466 281.118L47.5388 281.069Z" fill="#2F829D"></path><path d="M47.5388 292.015L47.4902 284.718L40.198 284.767L40.2466 292.063L47.5388 292.015Z" fill="#2F829D"></path><path d="M47.7542 324.85L47.7051 317.553L40.4129 317.603L40.462 324.899L47.7542 324.85Z" fill="#2F829D"></path><path d="M35.0994 7.0155L35.0508 -0.281006L27.7586 -0.232382L27.8072 7.06412L35.0994 7.0155Z" fill="#2F829D"></path><path d="M35.3142 39.8507L35.2656 32.5542L27.9734 32.6028L28.022 39.8993L35.3142 39.8507Z" fill="#2F829D"></path><path d="M36.0642 149.515L36.0156 142.219L28.7234 142.267L28.772 149.564L36.0642 149.515Z" fill="#2F829D"></path><path d="M36.1717 160.46L36.123 153.163L28.8309 153.212L28.8795 160.508L36.1717 160.46Z" fill="#2F829D"></path><path d="M36.9222 281.07L36.873 273.773L29.5809 273.822L29.63 281.119L36.9222 281.07Z" fill="#2F829D"></path><path d="M37.0291 292.122L36.9805 284.825L29.6883 284.874L29.7369 292.17L37.0291 292.122Z" fill="#2F829D"></path><path d="M24.8039 39.9579L24.7559 32.6614L17.4637 32.7095L17.5118 40.006L24.8039 39.9579Z" fill="#2F829D"></path><path d="M24.9113 61.848L24.8633 54.5515L17.5711 54.5996L17.6192 61.8961L24.9113 61.848Z" fill="#2F829D"></path><path d="M25.0193 72.8998L24.9707 65.6033L17.6785 65.6519L17.7271 72.9484L25.0193 72.8998Z" fill="#2F829D"></path><path d="M25.2336 105.735L25.1855 98.4387L17.8934 98.4868L17.9414 105.783L25.2336 105.735Z" fill="#2F829D"></path><path d="M25.3396 116.68L25.291 109.383L17.9988 109.432L18.0474 116.728L25.3396 116.68Z" fill="#2F829D"></path><path d="M25.5539 160.568L25.5059 153.271L18.2137 153.319L18.2617 160.616L25.5539 160.568Z" fill="#2F829D"></path><path d="M25.7693 193.51L25.7207 186.213L18.4285 186.262L18.4771 193.559L25.7693 193.51Z" fill="#2F829D"></path><path d="M25.8767 204.455L25.8281 197.158L18.5359 197.207L18.5845 204.503L25.8767 204.455Z" fill="#2F829D"></path><path d="M26.091 237.29L26.043 229.993L18.7508 230.041L18.7989 237.338L26.091 237.29Z" fill="#2F829D"></path><path d="M26.4119 281.177L26.3633 273.88L19.0711 273.929L19.1197 281.225L26.4119 281.177Z" fill="#2F829D"></path><path d="M26.5188 292.122L26.4707 284.825L19.1785 284.873L19.2266 292.17L26.5188 292.122Z" fill="#2F829D"></path><path d="M26.949 368.844L26.9004 361.548L19.6082 361.596L19.6568 368.893L26.949 368.844Z" fill="#2F829D"></path><path d="M27.0564 379.897L27.0078 372.6L19.7156 372.649L19.7642 379.945L27.0564 379.897Z" fill="#2F829D"></path><path d="M14.2947 40.0646L14.2461 32.7681L6.95391 32.8167L7.0025 40.1132L14.2947 40.0646Z" fill="#2F829D"></path><path d="M14.4021 61.955L14.3535 54.6584L7.06133 54.7071L7.10993 62.0036L14.4021 61.955Z" fill="#2F829D"></path><path d="M14.5095 72.8995L14.4609 65.603L7.16875 65.6517L7.21734 72.9482L14.5095 72.8995Z" fill="#2F829D"></path><path d="M14.7238 105.842L14.6758 98.5457L7.38361 98.5937L7.43165 105.89L14.7238 105.842Z" fill="#2F829D"></path><path d="M14.7244 116.787L14.6758 109.491L7.38361 109.54L7.4322 116.836L14.7244 116.787Z" fill="#2F829D"></path><path d="M15.7961 281.285L15.748 273.988L8.45587 274.036L8.50394 281.333L15.7961 281.285Z" fill="#2F829D"></path><path d="M3.46266 7.2301L3.41406 -0.0664062L-3.87811 -0.0177823L-3.82951 7.27872L3.46266 7.2301Z" fill="#2F829D"></path><path d="M4.74977 193.617L4.70117 186.32L-2.59102 186.369L-2.54242 193.665L4.74977 193.617Z" fill="#2F829D"></path><path d="M4.7503 204.562L4.70117 197.265L-2.59102 197.315L-2.54189 204.611L4.7503 204.562Z" fill="#2F829D"></path><path d="M4.96516 237.504L4.91602 230.208L-2.37617 230.257L-2.32703 237.553L4.96516 237.504Z" fill="#2F829D"></path><path d="M5.07201 248.449L5.02344 241.153L-2.26873 241.201L-2.22016 248.498L5.07201 248.449Z" fill="#2F829D"></path><path d="M5.71408 347.062L5.66602 339.765L-1.62617 339.813L-1.57811 347.11L5.71408 347.062Z" fill="#2F829D"></path><path d="M5.82214 358.114L5.77344 350.817L-1.51875 350.866L-1.47005 358.163L5.82214 358.114Z" fill="#2F829D"></path></g><defs><clipPath id="clip0_282_5879"><rect width="538" height="303" fill="white" transform="translate(1132 550) rotate(-90)"></rect></clipPath><clipPath id="clip1_282_5879"><rect width="440" height="249" fill="white" transform="translate(247) rotate(90)"></rect></clipPath></defs></svg>